<svg id="Livello_1" data-name="Livello 1" xmlns="http://www.w3.org/2000/svg" viewBox="0 0 114.83 127.54"><defs><style>.cls-1{fill:#79c6c0;}</style></defs><path class="cls-1" d="M13.77,61.72c0-8.33,0-16.65,0-25A23.86,23.86,0,0,1,31.51,13.39a25.84,25.84,0,0,1,6.3-.85c10.26-.08,20.52,0,30.78,0A14.14,14.14,0,0,1,79,16.8q9.42,9.42,18.84,18.83A14.17,14.17,0,0,1,102.2,46c0,13.65.08,27.3,0,41A24,24,0,0,1,78,111q-19.95,0-39.89,0A23.93,23.93,0,0,1,14,90.47a25.82,25.82,0,0,1-.26-4.13C13.75,78.14,13.77,69.93,13.77,61.72ZM94.63,45.37h-1.4c-3.2,0-6.4,0-9.59,0-6-.11-10.41-2.78-13-8.22a13.5,13.5,0,0,1-1.25-6.09c0-3.61,0-7.23,0-11h-31c-9.89,0-17,7.12-17,17q0,24.69,0,49.38c0,9.83,7.14,17,16.94,17H77.6c9.9,0,17-7.11,17-17q0-19.83,0-39.66ZM77,25.8a62.52,62.52,0,0,0,0,6.42,5.47,5.47,0,0,0,4.35,5.17,55.91,55.91,0,0,0,7.72.54Z"/><path class="cls-1" d="M53.9,61c-1.07,1.11-2.11,2.24-3.2,3.31a3.79,3.79,0,1,1-5.33-5.36q4.86-4.92,9.79-9.79a3.74,3.74,0,0,1,5.67,0q4.92,4.86,9.78,9.79a3.79,3.79,0,1,1-5.34,5.35c-1.08-1-2.13-2.1-3.2-3.16L61.84,61c0,.42-.06.78-.06,1.15q0,7.16,0,14.32c0,2.51-1.55,4.23-3.78,4.23S54.2,79,54.2,76.47c0-4.73,0-9.46,0-14.2V61.12Z"/></svg>