<svg preserveAspectRatio="xMidYMid meet" data-bbox="23.012 21 153.99 157.99" xmlns="http://www.w3.org/2000/svg" viewBox="23.012 21 153.99 157.99" height="200" width="200" data-type="color" role="presentation" aria-hidden="true" aria-label="">
    <g>
        <path fill="#F98971" d="M29.23 71.622h133.789V52.939c0-7.716-6.272-14.012-14.009-14.012h-11.559v8.403a5.725 5.725 0 0 1-5.722 5.724 5.726 5.726 0 0 1-5.723-5.724v-8.403h-25.178v8.403a5.725 5.725 0 0 1-5.722 5.724 5.725 5.725 0 0 1-5.723-5.724v-8.403H64.205v8.403a5.725 5.725 0 0 1-5.722 5.724 5.725 5.725 0 0 1-5.723-5.724v-8.403h-9.545c-7.713 0-14.008 6.273-14.008 14.012v18.683h.023Z" data-color="1"></path>
        <path fill="#FAF5F5" d="M29.227 150.976c0 7.716 6.271 14.012 14.008 14.012h105.772c7.714 0 14.008-6.273 14.008-14.012V77.849H29.227v73.127Z" data-color="2"></path>
        <path fill="#9E9C9C" d="M149.007 171.193H43.212c-.251 0-.503-.023-.755-.046 3.433 1.992 7.416 3.16 11.65 3.16h94.9c12.864 0 23.325-10.463 23.325-23.33v-87.14c0-4.258-1.168-8.22-3.159-11.653 0 .251.046.503.046.755v98.038c0 11.149-9.065 20.216-20.212 20.216Z" data-color="3"></path>
        <path fill="#161515" d="M114.559 96.55h-73.25v2.29h73.25v-2.29Z" data-color="4"></path>
        <path fill="#161515" d="M41.309 119.45h32.05v2.29h-32.05v-2.29Z" data-color="4"></path>
        <path fill="#161515" d="M41.309 142.35h43.49v2.29h-43.49v-2.29Z" data-color="4"></path>
        <path fill="#161515" d="m134.65 120.27-10.16-10.67h-.05c-.37-.39-.66-.82-.89-1.3-.39-.78-.62-1.62-.62-2.5 0-.62.11-1.21.32-1.81.02-.09.05-.16.07-.23.25-.64.62-1.26 1.12-1.79a4.906 4.906 0 0 1 4.56-1.47c.96.21 1.88.69 2.61 1.47l2.45 2.56.57.6.57-.6 2.45-2.56a5.02 5.02 0 0 1 2.61-1.47c1.6-.32 3.32.16 4.55 1.47.5.53.87 1.14 1.12 1.79.03.06.04.11.05.15 0 .03.01.05.02.08.21.57.32 1.19.32 1.81 0 .85-.23 1.72-.62 2.5-.23.46-.53.92-.89 1.3l-10.16 10.67Z" data-color="4"></path>
        <path fill="#161515" d="m106.498 113.89-3.96 4.03-.55.57-.55-.57-3.96-4.03c-1.72-1.74-3.94-2.61-6.18-2.61-2.24 0-4.46.87-6.18 2.61 0 0-.16.21-.25.3-.71.8-1.3 1.69-1.67 2.63-.73 1.85-.8 3.89-.27 5.79.39 1.4 1.1 2.75 2.2 3.85l16.87 17.15 16.87-17.15c1.03-1.05 1.72-2.31 2.13-3.62.23-.78.39-1.56.41-2.36 0-.06 0-.11.01-.16 0-.05.01-.1.01-.16 0-.96-.18-1.9-.48-2.82-.03-.09-.06-.17-.08-.26-.02-.09-.05-.19-.08-.27-.39-.96-.96-1.83-1.67-2.63-.05-.04-.09-.1-.13-.15-.04-.05-.08-.1-.13-.15 0 0-.11-.07-.16-.14a8.577 8.577 0 0 0-6.02-2.47c-2.17 0-4.46.87-6.18 2.61v.01Z" data-color="4"></path>
        <path fill="#161515" d="M148.982 32.72c6.8 0 12.8 3.37 16.46 8.49 6.98 5.11 11.56 13.33 11.56 22.62v87.16c0 15.43-12.54 28-27.99 28h-94.9c-9.29 0-17.51-4.58-22.61-11.56-5.13-3.69-8.49-9.68-8.49-16.46V52.94c-.01-11.15 9.05-20.22 20.18-20.22h9.54v-6c0-3.16 2.56-5.72 5.72-5.72 3.16 0 5.72 2.56 5.72 5.72v6h25.18v-6c0-3.16 2.56-5.72 5.72-5.72a5.72 5.72 0 0 1 5.72 5.72v6h25.18v-6c0-3.16 2.56-5.72 5.72-5.72 3.16 0 5.72 2.56 5.72 5.72v6h11.57Zm-105.75 6.21c-7.74 0-14.01 6.3-14.01 14.01v18.68h133.81V52.94c0-7.74-6.29-14.01-14.01-14.01h-11.56v8.4c0 3.16-2.56 5.72-5.72 5.72-3.16 0-5.72-2.56-5.72-5.72v-8.4h-25.18v8.4a5.72 5.72 0 0 1-5.72 5.72c-3.16 0-5.72-2.56-5.72-5.72v-8.4h-25.18v8.4c0 3.16-2.56 5.72-5.72 5.72-3.16 0-5.72-2.56-5.72-5.72v-8.4h-9.55Zm119.78 38.92H29.202v73.13c0 7.74 6.29 14.01 14.01 14.01h105.79c7.74 0 14.01-6.3 14.01-14.01V77.85Zm-14 96.46c12.86 0 23.32-10.46 23.32-23.33h-.02V63.84c0-4.24-1.17-8.22-3.16-11.65.02.25.05.5.05.76v98.04c0 11.15-9.06 20.22-20.21 20.22H43.212c-.13 0-.25-.01-.38-.02s-.25-.02-.38-.02c3.43 1.99 7.39 3.16 11.65 3.16h94.9l.01-.02Z" clip-rule="evenodd" fill-rule="evenodd" data-color="4"></path>
    </g>
</svg>