<svg id="Livello_1" data-name="Livello 1" xmlns="http://www.w3.org/2000/svg" viewBox="0 0 114.83 127.54"><defs><style>.cls-1{fill:#a21c26;}</style></defs><path class="cls-1" d="M57.39,111.78A45.81,45.81,0,1,1,103.22,66,45.75,45.75,0,0,1,57.39,111.78ZM38.72,88.32c-.06,4,3.59,6.17,6.8,4.45,3.69-2,7.35-4,11-6a1.64,1.64,0,0,1,1.86,0q5.39,3.09,10.84,6.1a4.34,4.34,0,0,0,5-.28A4.39,4.39,0,0,0,76,88.06c-.71-4.41-1.41-8.83-2.14-13.24a1.64,1.64,0,0,1,.49-1.61c3-3,6-6.08,8.94-9.13a4.55,4.55,0,0,0,1.25-4.91,4.47,4.47,0,0,0-3.9-3.08c-4-.62-8-1.29-12.08-1.86a1.6,1.6,0,0,1-1.41-1c-1.73-3.84-3.51-7.67-5.25-11.51-.87-1.93-2.23-3.17-4.42-3.16a4.62,4.62,0,0,0-4.34,3.11c-1.79,3.89-3.66,7.75-5.46,11.64a1.43,1.43,0,0,1-1.25,1q-5.58.81-11.13,1.73a9.54,9.54,0,0,0-3.06.86c-2.64,1.48-3,5-.72,7.25,3,3,6,6,9,9.1A1.79,1.79,0,0,1,41,74.4c-.22,1.81-.57,3.6-.86,5.4C39.62,82.76,39.14,85.73,38.72,88.32Z"/></svg>