<svg preserveAspectRatio="xMidYMid meet" data-bbox="29.501 20 141 159.999" viewBox="29.501 20 141 159.999" height="200" width="200" xmlns="http://www.w3.org/2000/svg" data-type="color" role="presentation" aria-hidden="true" aria-label="">
    <g>
        <path d="M167.294 37.61c2.992 7.955 2.327 17.567-4.987 53.365-7.315 35.798-16.956 74.234-21.611 80.041-4.562 5.688-16.651 5.569-17.116 5.555 4.309-2.691 8.139-8.658 11.796-20.63 6.982-22.871 31.253-98.126 23.939-104.755-1.915-1.724-8.857-3.46-18.18-5.197.266-.902.585-1.763 1.037-2.585.705-1.273 1.729-2.347 2.726-3.407 2.62-2.771 5.253-5.542 7.873-8.313l.146-.438c7.966 1.976 13.539 4.124 14.377 6.364z" fill="#FFFFFF" data-color="1"></path>
        <path d="M62.895 29.708c-3.272-5.277 5.812-8.896 21.279-8.008 12.421.716 48.382 4.508 68.743 9.546l-.146.438c-2.62 2.771-5.253 5.542-7.873 8.313-.997 1.061-2.021 2.135-2.726 3.407-.452.822-.771 1.684-1.037 2.585-26.253-4.866-71.416-9.692-76.577-14.346-.732-.662-1.29-1.311-1.663-1.935z" fill="#FFFFFF" data-color="1"></path>
        <path d="M106.982 176.241c11.238-42.891 22.476-85.769 33.713-128.66.133-.53.279-1.061.439-1.591 9.323 1.737 16.265 3.474 18.18 5.197 7.315 6.629-16.956 81.884-23.939 104.755-3.657 11.972-7.487 17.939-11.796 20.63 0 .013-.013 0-.013 0-3.923 2.453-8.245 2.161-13.193 1.193l-3.551-.716.16-.808z" fill="#E96A77" data-color="2"></path>
        <path d="m73.215 170.116-.612.146c-.146-.544-.253-1.1-.359-1.657 2.447-6.576-11.344-34.538-11.344-34.538s-12.408-22.791-20.84-29.911l1.942-.239a2938.535 2938.535 0 0 0 20.893-74.208c.372.623.931 1.273 1.662 1.936 5.16 4.654 50.324 9.48 76.577 14.346a34.89 34.89 0 0 0-.439 1.591c-11.238 42.891-22.476 85.769-33.713 128.66l-.16.809c-11.211-2.295-22.342-4.947-33.607-6.935z" fill="#E96A77" data-color="2"></path>
        <path d="M72.245 168.604c-.226.623-.598 1.061-1.144 1.26-1.476.544-3.524-.663-5.825-2.837-7.541-7.133-17.621-24.727-17.621-24.727.997-.331 13.246-8.234 13.246-8.234s13.791 27.962 11.344 34.538z" fill="#FDD249" data-color="3"></path>
        <path d="M37.6 120.715c-3.484-8.737-5.798-17.117-2.633-18.469 1.33-.57 3.099.239 5.094 1.909 8.432 7.12 20.84 29.911 20.84 29.911s-12.249 7.902-13.246 8.234c-.001-.001-5.865-11.058-10.055-21.585z" fill="#FDD249" data-color="3"></path>
        <path d="M47.654 142.299s10.081 17.594 17.621 24.727l-.718.557c-7.581-2.36-15.174-4.72-22.768-7.093-3.205-.994-6.689-2.201-8.418-5.065-1.742-2.877-1.157-6.536-.532-9.838.838-4.336 1.888-9.904 2.899-15.207.665-3.46 1.317-6.828 1.862-9.665 4.19 10.527 10.054 21.584 10.054 21.584z" fill="#E96A77" data-color="2"></path>
        <path d="M64.004 86.368c-.125 7.138 15.749 8.698 15.669.619-.08-8.079-15.544-7.757-15.669-.619z" fill="#F8CBD1" data-color="4"></path>
        <path d="M118.125 94.533c-.125 7.138 15.749 8.698 15.669.619-.08-8.078-15.544-7.756-15.669-.619z" fill="#F8CBD1" data-color="4"></path>
        <path d="M88.648 88.133c-.712 3.088-1.188 6.261-1.307 9.43-.104 2.779.362 5.836 2.558 7.781 4.798 4.252 10.868-1.454 13.819-5.249a24.918 24.918 0 0 0 4.187-8.094c.57-1.883-2.381-2.687-2.95-.811-.804 2.654-2.104 5.182-3.866 7.336a23.015 23.015 0 0 1-2.904 2.961c-1.041.885-2.233 1.826-3.566 2.207-2.894.827-4.138-2.455-4.225-4.729-.129-3.34.457-6.779 1.205-10.022.439-1.909-2.509-2.725-2.951-.81z" fill="#7E4E24" data-color="5"></path>
        <path d="M83.651 68.583c-.783 2.991-.453 9.139 4.068 8.534 1.639-.22 3.251-1.337 4.572-2.276a24.057 24.057 0 0 0 3.82-3.347c.557-.608.602-1.556 0-2.156-.565-.563-1.603-.61-2.163 0-.462.504-.943.988-1.449 1.449a22.98 22.98 0 0 1-1.105.941c-.032.026-.296.228-.163.128-1.047.792-2.207 1.587-3.421 2.104-.101.043-.029.024-.202.071-.001 0-.499.114-.259.085-.045.005-.447-.038-.252.002.095.057.1.062.013.015a1.326 1.326 0 0 1-.178-.106c.212.15-.043-.071-.095-.136.161.207-.039-.11-.073-.164-.141-.222.002.044-.052-.1a5.139 5.139 0 0 1-.134-.415c-.346-1.251-.303-2.568.023-3.815.202-.771-.256-1.691-1.068-1.876-.8-.185-1.666.236-1.882 1.062z" fill="#7E4E24" data-color="5"></path>
        <path d="M117.031 73.963c-.158 1.783-.068 3.556.208 5.324.121.778.331 1.557.881 2.151.757.818 1.824.938 2.868.764 2.947-.49 5.587-2.426 7.227-4.865.447-.664.151-1.718-.549-2.086-.771-.406-1.616-.162-2.092.547-.096.143-.196.283-.297.423.156-.214-.013.016-.081.097a9.521 9.521 0 0 1-1.184 1.191c-.08.067-.305.247-.094.085a9.477 9.477 0 0 1-.42.302c-.467.317-.959.577-1.465.823-.294.143.224-.075-.112.048-.122.045-.242.092-.364.134a9.394 9.394 0 0 1-1.25.338c-.178.031-.174.03.013-.002a1.62 1.62 0 0 1-.197.003c-.116-.005-.087.001.088.017-.167-.049-.162-.047.014.007.012.008.412.335.173.145-.077-.149-.073-.131.011.056l-.037-.11c-.034-.151-.08-.299-.109-.452a12.265 12.265 0 0 1-.105-.652 20.976 20.976 0 0 1-.065-4.288c.071-.797-.754-1.559-1.529-1.525-.893.04-1.457.671-1.533 1.525z" fill="#7E4E24" data-color="5"></path>
        <path d="m64.014 43.551-3.176 10.142c-.238.761.282 1.697 1.068 1.876.831.189 1.626-.25 1.881-1.065l3.176-10.142c.238-.761-.282-1.697-1.068-1.876-.831-.189-1.626.25-1.881 1.065z" fill="#FFFFFF" data-color="1"></path>
        <path d="M59.127 66.646c1.968 0 1.971-3.049 0-3.049-1.968 0-1.971 3.049 0 3.049z" fill="#FFFFFF" data-color="1"></path>
        <path d="m46.962 138.307 10.369-4.944c.745-.355.941-1.417.549-2.086-.446-.76-1.345-.904-2.093-.547l-10.369 4.944c-.745.355-.941 1.417-.549 2.086.446.76 1.345.904 2.093.547z" fill="#FFFFFF" data-color="1"></path>
        <path d="M72.353 23.546a613.395 613.395 0 0 1 79.983 12.741c3.19.727 7.002 1.156 9.263 3.776 1.877 2.175 2.445 5.277 2.703 8.047.35 3.756.334 7.551.107 11.314-.465 7.71-1.904 15.322-3.53 22.86-3.295 15.269-7.531 30.319-11.615 45.391l-6.136 22.648-3.068 11.324c-.881 3.25-1.572 6.686-3.038 9.739-.669 1.393-1.511 2.663-2.629 3.738-.864.831.453 2.142 1.317 1.313 2.381-2.289 3.629-5.381 4.551-8.487 1.077-3.627 2-7.305 2.989-10.957l6.296-23.236c4.167-15.381 8.527-30.73 12.081-46.267 1.76-7.691 3.389-15.445 4.239-23.296.418-3.864.634-7.753.543-11.639-.077-3.306-.213-6.799-1.328-9.948-1.041-2.941-2.955-5.225-5.887-6.415-1.666-.676-3.448-1.027-5.194-1.429a613.907 613.907 0 0 0-29.094-5.953 618.391 618.391 0 0 0-52.555-7.123c-1.19-.108-1.183 1.749.002 1.859z" fill="#7E4E24" data-color="5"></path>
        <path d="M64.429 25.504a836.84 836.84 0 0 1 73.453 12.483c3.908.844 7.862 1.611 11.722 2.658 2.929.795 5.541 2.057 7.599 4.32 4.279 4.704 3.934 11.474 2.572 17.259-.274 1.162 1.521 1.658 1.795.493 1.333-5.66 1.767-12.144-1.607-17.216-1.416-2.128-3.392-3.963-5.686-5.112-3.425-1.715-7.38-2.314-11.088-3.138a839.802 839.802 0 0 0-78.761-13.604c-.503-.063-.926.471-.931.928-.005.553.435.867.932.929z" fill="#7E4E24" data-color="5"></path>
        <path d="M147.689 113.911a920.869 920.869 0 0 1-16.624 62.375c-.349 1.146 1.448 1.635 1.795.493a922.435 922.435 0 0 0 16.624-62.375c.267-1.162-1.528-1.659-1.795-.493z" fill="#7E4E24" data-color="5"></path>
        <path d="M63.822 28.189c6.002 2.669 12.438 3.954 18.886 5.035 6.89 1.155 13.787 2.271 20.681 3.406l20.696 3.406c6.075 1 12.223 1.82 18.213 3.268 6.021 1.456 11.986 3.734 16.481 8.132.856.838 2.173-.474 1.317-1.312-8.407-8.228-20.988-9.486-32.041-11.306l-41.827-6.884c-7.268-1.196-14.686-2.334-21.465-5.348-1.087-.482-2.035 1.117-.941 1.603z" fill="#7E4E24" data-color="5"></path>
        <path d="M61.686 28.326a2938.866 2938.866 0 0 1-21.164 75.185c-.558 1.886 2.393 2.692 2.95.811a2948.705 2948.705 0 0 0 21.164-75.186c.506-1.898-2.443-2.707-2.95-.81z" fill="#7E4E24" data-color="5"></path>
        <path d="M48.067 143.764c.961-.351 1.84-.961 2.708-1.489a324.38 324.38 0 0 0 4.56-2.844 838.926 838.926 0 0 0 6.338-4.048c.71-.458.959-1.334.549-2.086-2.323-4.264-4.826-8.441-7.423-12.543-2.172-3.431-4.432-6.815-6.883-10.055-2.093-2.766-4.296-5.589-6.998-7.798-1.82-1.489-4.433-3.185-6.825-1.923-2.12 1.118-2.291 3.875-2.086 5.974.324 3.317 1.336 6.55 2.434 9.683 1.337 3.815 2.902 7.552 4.544 11.245 2.23 5.016 4.489 10.161 7.223 14.933.047.082.088.168.133.252.921 1.735 3.562.196 2.641-1.539-2.039-3.843-3.944-7.762-5.775-11.707-3.024-6.516-6.101-13.271-7.691-20.304-.332-1.47-.489-2.235-.515-3.629a9.151 9.151 0 0 1 .013-.741c.007-.124.019-.247.03-.371.024-.267-.068.302.01-.041.048-.21.106-.415.158-.623.016-.064.141-.334.03-.095-.143.311.089-.138.088-.141-.027-.039.209-.318-.042.026.05-.069.115-.133.177-.19.208-.193-.158.111-.082.053.077-.059.167-.108.255-.151-.259.127-.071.021.197-.033.227-.046-.365-.006-.041.015.111.007.227.007.338.009-.311-.004-.009-.004.261.071.11.031.217.071.326.106.332.106-.218-.119.114.047a10.689 10.689 0 0 1 1.745 1.087c.188.142-.173-.137.015.014.055.044.11.087.164.132.264.219.524.441.778.671a29.43 29.43 0 0 1 1.614 1.585c1.196 1.258 2.311 2.592 3.382 3.957 2.354 2.999 4.498 6.165 6.566 9.364a236.945 236.945 0 0 1 5.513 8.981c.957 1.634 1.79 3.397 2.836 4.975.051.077.091.165.135.247l.549-2.086a877.984 877.984 0 0 1-6.154 3.932 358.702 358.702 0 0 1-4.446 2.779c-.558.342-1.117.682-1.683 1.01-.178.103-.361.199-.538.304-.237.14-.461.199-.054.05-1.835.664-1.043 3.613.812 2.935z" fill="#7E4E24" data-color="5"></path>
        <path d="M46.339 143.063c2.162 3.771 4.486 7.459 6.898 11.076 2.03 3.045 4.149 6.034 6.429 8.899 1.939 2.437 4.005 4.857 6.508 6.739 1.629 1.224 3.973 2.436 5.966 1.279 1.891-1.097 2.043-3.612 1.878-5.548-.252-2.95-1.075-5.844-1.977-8.652-1.079-3.359-2.351-6.655-3.696-9.916-1.852-4.491-3.694-9.131-6.012-13.412-.041-.075-.075-.154-.113-.231-.868-1.761-3.507-.217-2.641 1.539 1.675 3.397 3.234 6.856 4.73 10.334 2.495 5.803 4.999 11.809 6.285 18.015.064.311.125.623.18.936.024.139.136.875.103.626.07.53.118 1.064.13 1.598.005.236.005.473-.007.709-.007.129-.106.816-.02.339-.035.189-.079.374-.123.561-.02.086-.056.169-.083.253-.084.258.176-.343-.017.013-.197.363-.134.09-.047.097a1.33 1.33 0 0 0-.13.13c-.016.134.23-.071.078-.063-.056.003-.134.117-.193.105.835.17-.043-.216.071-.046-.005-.007-.22.053-.242.052.629.021.017-.016-.017-.029-.347-.134.276.126-.227-.033-.193-.061-.386-.113-.577-.183.407.15-.236-.12-.345-.179a8.71 8.71 0 0 1-.637-.381c-.588-.381-.701-.482-1.151-.862a25.563 25.563 0 0 1-1.548-1.433 47.465 47.465 0 0 1-3.006-3.334c-2.161-2.605-4.132-5.364-6.033-8.161-2.737-4.027-5.353-8.153-7.774-12.377-.975-1.702-3.619-.168-2.64 1.54z" fill="#7E4E24" data-color="5"></path>
        <path d="M69.217 170.968a29.882 29.882 0 0 0 3.455 4.261c.456.465 1.292.599 1.853.238.541-.348.937-1.073.703-1.722a36.027 36.027 0 0 1-1.639-6.263c-.132-.789-1.152-1.3-1.881-1.065-.855.276-1.21 1.03-1.068 1.876a35.938 35.938 0 0 0 1.639 6.263l2.556-1.483a27.926 27.926 0 0 1-1.666-1.857c-.119-.145-.246-.289-.354-.443.223.318 0-.001-.037-.051a27.515 27.515 0 0 1-.919-1.294c-.444-.662-1.369-1.012-2.092-.547-.663.426-1.025 1.378-.55 2.087z" fill="#7E4E24" data-color="5"></path>
        <path d="M36.12 120.283c-1.636 8.525-3.316 17.044-4.878 25.583-.796 4.354-1.07 9.25 2.589 12.45 3.393 2.968 8.356 3.9 12.544 5.204l17.783 5.536c1.883.586 2.689-2.357.813-2.941l-14.786-4.603-7.593-2.364c-1.775-.553-3.572-1.096-5.193-2.024-1.71-.979-2.975-2.362-3.437-4.311-.474-1.998-.135-4.149.229-6.137.73-3.981 1.518-7.952 2.274-11.928.866-4.552 1.731-9.104 2.604-13.655.368-1.917-2.579-2.738-2.949-.81z" fill="#7E4E24" data-color="5"></path>
        <path d="M33.256 114.148c-2.45.847-3.862 3.287-3.749 5.833.134 3.019 1.899 5.869 3.333 8.444 1.555 2.793 3.265 5.497 5.006 8.179.678 1.044 1.416 2.855 2.669 3.298 1.505.532 2.931-1.127 2.058-2.515-1.043-1.659-3.691-.13-2.641 1.539l.077.123v-1.539l.323-.318h1.544c-.262-.125-.573-.874-.735-1.122-.291-.446-.582-.893-.872-1.341a236.575 236.575 0 0 1-1.722-2.696 111.395 111.395 0 0 1-3.356-5.672c-.958-1.748-2.054-3.571-2.501-5.53-.294-1.292-.097-3.232 1.379-3.742 1.848-.64 1.053-3.587-.813-2.941z" fill="#7E4E24" data-color="5"></path>
        <path d="M72.811 171.58c8.664 1.538 17.251 3.454 25.851 5.304 3.989.858 7.98 1.739 11.993 2.481 1.829.338 3.691.611 5.554.633 3.663.042 7.064-1.059 9.897-3.392 3.982-3.281 6.339-8.291 8.211-12.968 1.734-4.333 3.004-8.836 4.382-13.29 1.218-3.936 2.438-7.871 3.647-11.809 2.98-9.71 5.902-19.438 8.673-29.21 2.804-9.885 5.488-19.814 7.737-29.841 1.63-7.268 3.378-14.83 3.445-22.314.018-2.033-.032-4.419-1.127-6.212-.977-1.601-3.001-2.318-4.678-2.915-6.349-2.262-13.227-3.278-19.844-4.414-9.417-1.617-18.875-2.988-28.324-4.403-8.964-1.342-17.939-2.663-26.848-4.334-3.31-.621-6.619-1.282-9.877-2.141a42.817 42.817 0 0 1-3.521-1.063c-.237-.085-.471-.176-.707-.265-.11-.042-.481-.203-.039-.012-.101-.044-.203-.085-.302-.132a13.722 13.722 0 0 1-1.014-.528c-.156-.089-.558-.446-.119-.058a12.973 12.973 0 0 1-.747-.699c-.336-.347-.558-.604-.769-.932-.271-.422-.345-.552-.422-.819a4.007 4.007 0 0 1-.122-.506c.054.363.004-.102.016-.208.03-.255-.082.231.03-.186.033-.124.188-.487.052-.203a3.84 3.84 0 0 1 .25-.436c.152-.235.036-.056-.003-.008.056-.07.118-.14.18-.205.359-.375.449-.453.791-.676 1.889-1.229 4.172-1.756 6.368-2.134 3.372-.581 6.839-.659 10.253-.566 8.119.221 16.261 1.204 24.325 2.112 10.296 1.159 20.576 2.526 30.787 4.287 8.205 1.415 16.72 2.83 24.517 5.849.737.285.834.318 1.641.703.52.248 1.033.516 1.523.819.212.131.414.273.62.414.217.149-.271-.236-.005-.005.091.079.185.153.273.235.144.132.269.279.404.419-.448-.462.14.144.088.165.028-.011.26.677-.033-.1.046.122.093.244.135.367.084.248.173.494.254.743a24.11 24.11 0 0 1 .798 3.172c.052.287.098.575.142.864.059.383-.004-.057.022.153.019.153.038.305.055.458.849 7.626-.603 15.543-1.862 23.037-2.57 15.29-5.817 30.487-9.216 45.612-3.175 14.129-6.511 28.264-10.676 42.141a183.869 183.869 0 0 1-2.341 7.313c-.607 1.751-1.337 3.733-1.994 5.203a24.219 24.219 0 0 1-.924 1.879c-.128.23-.26.459-.403.68-.067.104-.141.204-.207.309-.271.431.252-.247-.132.169-1.694 1.839-3.853 2.91-6.234 3.62a32.018 32.018 0 0 1-9.664 1.306c-1.969-.037-1.969 3.012 0 3.049 3.568.068 7.308-.434 10.711-1.486 2.508-.776 5.022-1.94 6.887-3.828 1.021-1.034 1.725-2.272 2.338-3.574 1.859-3.95 3.178-8.166 4.457-12.33 1.918-6.246 3.609-12.561 5.225-18.89 4.009-15.706 7.523-31.54 10.76-47.421 2.465-12.096 5.121-24.307 6.238-36.62.498-5.486.626-11.266-1.333-16.509-.8-2.141-2.799-3.296-4.799-4.2-3.204-1.449-6.616-2.418-10.019-3.28-9.531-2.415-19.294-3.958-29.019-5.35a627.542 627.542 0 0 0-29.702-3.535c-3.471-.329-6.946-.634-10.427-.851-6.04-.376-12.704-.495-18.484 1.591-1.868.674-3.841 1.641-4.955 3.359-.986 1.521-.91 3.323-.112 4.902 1.208 2.392 3.331 3.657 5.741 4.528 2.61.943 5.344 1.561 8.052 2.147 3.81.824 7.648 1.514 11.49 2.167 9.458 1.609 18.956 2.978 28.444 4.401 9.07 1.36 18.152 2.708 27.162 4.43 3.364.643 6.727 1.33 10.034 2.225 1.216.329 2.428.686 3.61 1.122.225.083.448.172.672.259.382.149-.181-.084.046.019.128.057.256.113.382.173.351.166.689.35 1.02.553.257.158.327.284.101.055.103.104.219.216.329.313-.206-.182-.089-.182.06.116.092.183.262.614.099.161.143.399.264.796.348 1.212.044.217.078.435.11.654-.074-.503.03.344.043.512.223 2.853-.094 5.757-.462 8.585-.475 3.652-1.304 7.968-2.124 11.828-1.012 4.765-2.151 9.503-3.352 14.225-2.628 10.339-5.548 20.603-8.573 30.833-2.657 8.986-5.412 17.942-8.183 26.893-1.187 3.833-2.297 7.701-3.597 11.497-1.751 5.113-3.904 10.706-7.85 14.574-2.452 2.404-5.346 3.424-8.653 3.398-1.846-.014-3.232-.226-4.99-.557-4.157-.782-8.292-1.689-12.427-2.58-8.398-1.81-16.786-3.672-25.246-5.174-1.924-.341-2.75 2.597-.812 2.941z" fill="#7E4E24" data-color="5"></path>
        <path d="m151.686 30.606-5.059 5.344c-1.643 1.736-3.408 3.415-4.859 5.318-1.388 1.821-2.033 3.925-2.606 6.109l-1.914 7.305-7.709 29.425-15.365 58.647-8.666 33.078c-.498 1.9 2.452 2.711 2.95.811l15.206-58.038 15.259-58.241 2.127-8.117c.651-2.485 1.076-5.247 2.187-7.578 1.079-2.262 3.152-4.025 4.852-5.82l5.761-6.087c1.349-1.426-.81-3.586-2.164-2.156z" fill="#7E4E24" data-color="5"></path>
    </g>
</svg>