<svg preserveAspectRatio="xMidYMid meet" data-bbox="43 29.5 114 141" viewBox="43 29.5 114 141" height="200" width="200" xmlns="http://www.w3.org/2000/svg" data-type="color" role="presentation" aria-hidden="true" aria-label="">
    <g>
        <path d="M153 29.5H63.562C52.225 29.5 43 38.752 43 50.125v99.75c0 11.373 9.225 20.625 20.562 20.625H153a4 4 0 0 0 4-4v-133a4 4 0 0 0-4-4zm-89.438 8H149v91.75H63.562c-4.732 0-9.084 1.628-12.562 4.333V50.125C51 43.164 56.636 37.5 63.562 37.5zm0 125C56.636 162.5 51 156.836 51 149.875s5.636-12.625 12.562-12.625H149v25.25H63.562z" fill="#000001" data-color="1"></path>
    </g>
</svg>