<svg preserveAspectRatio="xMidYMid meet" data-bbox="74 20.001 51.999 159.999" viewBox="74 20.001 51.999 159.999" height="200" width="200" xmlns="http://www.w3.org/2000/svg" data-type="color" role="presentation" aria-hidden="true" aria-label="">
    <g>
        <path d="M92.715 178.649c-3.805-1.409-8.517-27.314-9.562-30.759 8.191 2.825 16.914 4.22 26.191 4.193-2.414 3.083-14.454 27.371-16.629 26.566z" fill="#758CA6" data-color="1"></path>
        <path d="M109.344 152.084c-9.277.027-18-1.368-26.191-4.193-.679-2.257 4.429-43.524 9.468-76.889 16.955 3.624 27.394 4.749 27.394 4.749-3.967 32.6-9.03 74.237-10.671 76.333z" fill="#A1C9EC" data-color="2"></path>
        <path d="M77.638 79.791c-4.927-.907-.936-33.375 2.636-42.757s18.298-2.705 18.298-2.705l.412.091c-.29 1.25-.591 2.693-.923 4.282-.376-.152-9.858-3.822-12.35.344-2.552 4.256-3.146 41.652-8.073 40.745z" fill="#758CA6" data-color="1"></path>
        <path d="M120.014 75.751s-10.439-1.125-27.394-4.749c.26-1.726.513-3.431.778-5.106 9.526 2.023 18.653 3.726 27.215 4.989-.195 1.59-.393 3.217-.599 4.866z" fill="#758CA6" data-color="1"></path>
        <path d="M98.06 38.703c.332-1.59.633-3.032.923-4.282.249-1.045.475-1.965.696-2.739 5.105-18.294 27.598-10.577 24.734 9.159-.813 5.62-2.191 16.829-3.799 30.044-8.563-1.262-17.689-2.966-27.215-4.989 1.663-10.786 3.298-20.42 4.661-27.193z" fill="#A1C9EC" data-color="2"></path>
        <path d="M103.968 35.514c-1.856 2.476-2.87 5.516-2.962 8.588-.021.689.629 1.348 1.336 1.317.741-.033 1.313-.579 1.336-1.317a14.402 14.402 0 0 1 .102-1.348c-.018.127-.014.11.009-.051.023-.133.044-.267.069-.4a13.89 13.89 0 0 1 .542-2.024c.228-.65.378-.995.74-1.667a14.21 14.21 0 0 1 1.135-1.769c.417-.556.112-1.494-.479-1.802-.698-.363-1.383-.12-1.828.473z" fill="#FFFAF3" data-color="3"></path>
        <path d="m100.011 56.397-.136.357a.978.978 0 0 0-.024.525.98.98 0 0 0 .158.49 1 1 0 0 0 .344.369c.129.116.28.195.454.236l.355.047c.241-.001.466-.061.674-.18l.27-.206a1.3 1.3 0 0 0 .343-.581l.136-.357a.978.978 0 0 0 .024-.525.977.977 0 0 0-.158-.49 1.01 1.01 0 0 0-.344-.37 1.016 1.016 0 0 0-.454-.236l-.355-.047a1.347 1.347 0 0 0-.674.18l-.27.206a1.328 1.328 0 0 0-.343.582z" fill="#FFFAF3" data-color="3"></path>
        <path d="m89.789 119.077-1.082 7.335c-.1.679.17 1.449.933 1.62.633.142 1.535-.191 1.643-.92l1.082-7.335c.1-.679-.17-1.449-.933-1.62-.633-.142-1.536.19-1.643.92z" fill="#FFFAF3" data-color="3"></path>
        <path d="m89.975 133.928-.362-.134a1.028 1.028 0 0 0-.533-.024 1.01 1.01 0 0 0-.497.156 1.006 1.006 0 0 0-.375.339.981.981 0 0 0-.239.448l-.048.35c.001.238.062.459.182.665l.209.267c.167.163.363.276.589.339l.362.134c.178.055.355.063.533.024a1.01 1.01 0 0 0 .497-.156c.156-.083.281-.196.375-.339a.986.986 0 0 0 .239-.448l.048-.35a1.309 1.309 0 0 0-.182-.665l-.209-.267a1.329 1.329 0 0 0-.589-.339z" fill="#FFFAF3" data-color="3"></path>
        <path d="M106.336 155.581a83.61 83.61 0 0 1-22.64-5.033c-.98-.366-1.403 1.184-.432 1.546a85.169 85.169 0 0 0 23.072 5.091c1.043.081 1.038-1.523 0-1.604z" fill="#7E4E24" data-color="4"></path>
        <path d="M96.737 173.884a36.474 36.474 0 0 0-7.575-1.474c-.438-.039-.813.396-.813.802 0 .466.374.763.813.802 2.426.215 4.818.698 7.143 1.417 1 .309 1.428-1.239.432-1.547z" fill="#7E4E24" data-color="4"></path>
        <path d="M92.36 179.919c1.828.587 3.441-2.173 4.241-3.329 1.75-2.528 3.279-5.209 4.798-7.876 1.718-3.017 3.383-6.062 5.064-9.098 1.174-2.12 2.304-4.293 3.645-6.317 1.222-1.843 1.463-4.13 1.846-6.268.832-4.655 1.493-9.341 2.147-14.023.918-6.574 1.776-13.156 2.615-19.74a4555.36 4555.36 0 0 0 2.751-22.077c.884-7.207 1.758-14.416 2.637-21.624a3966.33 3966.33 0 0 1 2.243-18.166c.289-2.283.582-4.566.887-6.847l.097-.724.042-.307.016-.119.177-1.277c.227-1.606.444-3.205.432-4.831-.049-6.833-3.506-13.761-10.182-16.404-2.654-1.051-5.729-1.212-8.442-.27-3.119 1.083-5.574 3.394-7.161 6.223-2.202 3.927-2.895 8.722-3.749 13.082-1.078 5.506-2.016 11.038-2.918 16.574-1.115 6.84-2.16 13.69-3.168 20.546a2021.964 2021.964 0 0 0-3.111 22.049 1845.868 1845.868 0 0 0-2.679 20.562 944.74 944.74 0 0 0-1.94 16.605c-.353 3.322-.742 6.659-.87 9.999-.029.77-.034 1.511.17 2.26.595 2.182 1.015 4.418 1.504 6.624 1.459 6.588 2.815 13.368 5.301 19.671.722 1.824 1.6 4.309 3.607 5.102.67.265 1.467-.289 1.643-.92.209-.751-.261-1.354-.933-1.62.442.175.198.086.095.023-.219-.135.103.096.067.06-.13-.129-.26-.256-.387-.388-.15-.156.164.242.002.003-.061-.089-.125-.176-.185-.266a8.978 8.978 0 0 1-.371-.616 17.169 17.169 0 0 1-.723-1.489c.099.228-.068-.165-.099-.241-.063-.156-.126-.312-.187-.468-.129-.33-.252-.662-.373-.995-1.136-3.153-1.995-6.404-2.807-9.65-.815-3.26-1.553-6.537-2.276-9.817-.435-1.971-.735-4.051-1.376-5.971-.114-.341-.005.333 0 .07.003-.138-.016-.279-.018-.417-.007-.413.01-.826.029-1.238.064-1.378.181-2.753.304-4.126.407-4.549.925-9.089 1.457-13.626.728-6.206 1.508-12.406 2.315-18.602.913-7.009 1.856-13.949 2.843-20.944.998-7.078 2.032-14.15 3.118-21.215.956-6.216 1.948-12.428 3.031-18.624.796-4.554 1.615-9.112 2.644-13.622.474-2.08.947-4.215 1.88-6.148.704-1.458 1.527-2.696 2.663-3.79.58-.559.95-.849 1.572-1.238a9.95 9.95 0 0 1 1.615-.817c1.379-.508 2.3-.639 3.689-.585.169.007.337.017.506.031.085.007.42.044.327.032.123.016.668.115.953.182a12.019 12.019 0 0 1 1.606.498c.216.083-.022-.013.105.041 2.667 1.135 4.678 3.06 6.1 5.519 1.741 3.012 2.327 6.588 2.083 10.088-.146 2.097-.533 4.192-.81 6.276a1683.225 1683.225 0 0 0-1.939 15.346c-.82 6.663-1.628 13.327-2.44 19.991-.889 7.297-1.78 14.594-2.688 21.889a2792.907 2792.907 0 0 1-2.652 20.773c-.738 5.586-1.47 11.002-2.332 16.67-.516 3.393-.982 6.834-1.81 10.171-.095.384-.214.757-.329 1.135-.108.353.211-.279-.023.045-.115.159-.23.319-.341.481-1.282 1.872-2.333 3.917-3.431 5.896-3.143 5.665-6.13 11.471-9.724 16.877-.31.466-.626.927-.957 1.378l-.236.317c-.191.258.026-.026-.074.096-.13.159-.259.318-.396.471-.116.13-.234.258-.361.379-.124.118-.441.387-.092.103-.195.158-.339.13.01.039-.171.044-.154-.014.2-.014-.135 0 .424.093.22.028-1.635-.527-2.337 2.016-.707 2.539z" fill="#7E4E24" data-color="4"></path>
        <path d="M99.248 33.193c-3.054-1.38-6.467-2.292-9.823-2.461-2.386-.121-4.959.226-6.992 1.547-2.147 1.395-3.214 3.525-3.953 5.877-1.433 4.559-2.235 9.338-2.93 14.052-.815 5.528-1.425 11.113-1.534 16.702-.042 2.138-.018 4.291.246 6.417.186 1.493.41 3.186 1.292 4.462.773 1.119 2.177 1.744 3.452 1.006 1.112-.644 1.661-1.994 2.076-3.128 1.388-3.8 1.803-8.012 2.309-11.993.627-4.937 1.085-9.893 1.616-14.84.119-1.11.242-2.22.374-3.329.062-.522.126-1.043.194-1.564.078-.605.074-.58.167-1.218.208-1.432.416-2.891.837-4.281.036-.121.077-.24.116-.36.021-.064.162-.416.052-.153-.108.257.02-.047.055-.104.022-.036.042-.074.062-.111.12-.217.107-.181.212-.297.566-.622 1.54-.933 2.444-1.002 2.354-.178 4.656.379 6.914 1.113.429.139.858.284 1.277.451.669.266 1.467-.29 1.643-.92.21-.752-.261-1.353-.933-1.62a25.574 25.574 0 0 0-4.425-1.282c-2.45-.488-5.349-.795-7.62.475-1.48.828-2.157 2.182-2.542 3.734-.393 1.586-.612 3.216-.83 4.832-1.221 9.03-1.604 18.215-3.292 27.039-.31 1.62-.656 3.258-1.234 4.81-.048.13-.101.259-.151.388-.106.269.133-.28.011-.026-.032.067-.061.136-.094.203-.121.239-.256.464-.392.695-.181.306.091-.074.004.007-.065.061-.161.149-.211.222-.153.224.294-.179.035-.027-.316.186.279-.07.038-.007-.265.069.39-.015.123-.011-.338.005.353.09.064.01-.28-.077.322.183.036.015-.256-.15.168.268-.03-.023-.122-.179-.148-.202-.011.014-.066-.105-.14-.203-.202-.311-.063-.109-.115-.223-.17-.336.139.281-.008-.023-.075-.216-.237-.687-.372-1.403-.486-2.118-.008-.05-.056-.414-.014-.087-.012-.094-.025-.189-.035-.283-.024-.216-.048-.431-.069-.647a33.859 33.859 0 0 1-.108-1.525c-.255-5.013.174-10.076.738-15.055.577-5.102 1.369-10.204 2.544-15.208.421-1.792.861-3.619 1.543-5.335.838-2.107 2.446-3.301 4.539-3.788 1.966-.458 4.32-.244 6.32.171 1.695.352 3.363.859 4.972 1.49.117.046.233.095.351.141.295.114-.305-.137-.06-.025.071.033.144.062.216.094.655.296 1.438.184 1.827-.472.332-.569.176-1.506-.483-1.804z" fill="#7E4E24" data-color="4"></path>
        <path d="M120.964 69.614c-9.125-1.349-18.189-3.079-27.209-4.991-1.676-.355-2.392 2.183-.71 2.54 9.02 1.912 18.083 3.643 27.209 4.991.712.105 1.436-.176 1.643-.92.173-.621-.216-1.514-.933-1.62z" fill="#7E4E24" data-color="4"></path>
        <path d="M109.344 150.767c-8.795.016-17.515-1.29-25.831-4.144-1.627-.558-2.326 1.985-.71 2.54 8.523 2.926 17.527 4.255 26.541 4.239 1.718-.004 1.722-2.638 0-2.635z" fill="#7E4E24" data-color="4"></path>
        <path d="M120.016 74.432c-.386-.042-.772-.09-1.158-.138l-.586-.074-.36-.047c-.24-.031.028.004.064.009l-.257-.034c-.667-.09-1.334-.183-2-.279a310.34 310.34 0 0 1-12.604-2.106c-3.39-.633-6.77-1.314-10.141-2.035-1.676-.358-2.392 2.181-.71 2.54 8.685 1.856 17.439 3.495 26.256 4.619.498.063.996.127 1.495.18.718.077 1.336-.661 1.336-1.317.001-.778-.614-1.241-1.335-1.318z" fill="#7E4E24" data-color="4"></path>
    </g>
</svg>