<svg id="visual" viewBox="0 0 2600 100" width="2600" height="100" xmlns="http://www.w3.org/2000/svg" xmlns:xlink="http://www.w3.org/1999/xlink" version="1.1">
<path d="M0 48L54.2 46.3C108.3 44.7 216.7 41.3 325 43.5C433.3 45.7 541.7 53.3 650 52.3C758.3 51.3 866.7 41.7 975 40.8C1083.3 40 1191.7 48 1300 46.7C1408.3 45.3 1516.7 34.7 1625 33.3C1733.3 32 1841.7 40 1950 45.2C2058.3 50.3 2166.7 52.7 2275 47.8C2383.3 43 2491.7 31 2545.8 25L2600 19L2600 0L2545.8 0C2491.7 0 2383.3 0 2275 0C2166.7 0 2058.3 0 1950 0C1841.7 0 1733.3 0 1625 0C1516.7 0 1408.3 0 1300 0C1191.7 0 1083.3 0 975 0C866.7 0 758.3 0 650 0C541.7 0 433.3 0 325 0C216.7 0 108.3 0 54.2 0L0 0Z" fill="#ffffff"></path><path d="M0 101L54.2 101C108.3 101 216.7 101 325 101C433.3 101 541.7 101 650 101C758.3 101 866.7 101 975 101C1083.3 101 1191.7 101 1300 101C1408.3 101 1516.7 101 1625 101C1733.3 101 1841.7 101 1950 101C2058.3 101 2166.7 101 2275 101C2383.3 101 2491.7 101 2545.8 101L2600 101L2600 64L2545.8 66.3C2491.7 68.7 2383.3 73.3 2275 75.2C2166.7 77 2058.3 76 1950 77.5C1841.7 79 1733.3 83 1625 85C1516.7 87 1408.3 87 1300 84.3C1191.7 81.7 1083.3 76.3 975 75.3C866.7 74.3 758.3 77.7 650 80.2C541.7 82.7 433.3 84.3 325 84C216.7 83.7 108.3 81.3 54.2 80.2L0 79Z" fill="#ed45a0"></path></svg>