<svg id="visual" viewBox="0 0 900 900" width="900" height="900" xmlns="http://www.w3.org/2000/svg" xmlns:xlink="http://www.w3.org/1999/xlink" version="1.1"><g transform="translate(467.04827717041553 506.84492467844257)"><path d="M286.5 -347C373.3 -268.6 447.2 -180.2 462.5 -83.1C477.8 14.1 434.6 120 371.9 201.6C309.2 283.2 226.9 340.3 137.6 368.7C48.4 397.1 -48 396.8 -147.4 374C-246.9 351.3 -349.5 306.1 -415.9 224.1C-482.3 142.1 -512.4 23.2 -494.7 -89C-477 -201.2 -411.4 -306.6 -321 -384.5C-230.5 -462.3 -115.3 -512.4 -7.7 -503.2C99.8 -494 199.7 -425.5 286.5 -347" fill="#ffffff"></path></g></svg>