<svg id="visual" viewBox="0 0 900 900" width="900" height="900" xmlns="http://www.w3.org/2000/svg" xmlns:xlink="http://www.w3.org/1999/xlink" version="1.1"><g transform="translate(440.0055895805149 417.5383267103118)"><path d="M304.5 -355.3C389.2 -291.9 448.7 -190.7 458.8 -87.6C469 15.4 429.8 120.5 377.1 223.5C324.5 326.5 258.5 427.6 163.4 472.3C68.3 517.1 -55.8 505.7 -154.3 455.9C-252.7 406.2 -325.5 318.1 -376 221.5C-426.4 125 -454.5 19.9 -433.3 -72.3C-412.1 -164.5 -341.6 -243.8 -261.2 -308C-180.8 -372.1 -90.4 -421.1 9.8 -432.7C109.9 -444.3 219.8 -418.7 304.5 -355.3" fill="#ffffff"></path></g></svg>