<svg preserveAspectRatio="none" style="fill:white" data-bbox="27 20.292 146 159.001" viewBox="27 20.292 146 159.001" height="200" width="200" xmlns="http://www.w3.org/2000/svg" data-type="shape" role="presentation" aria-hidden="true" aria-label="">
    <g>
        <path d="M105.62 20.539c-11.093-1.138-22.389 1.79-32.926 6.024-14.085 5.66-26.237 15.306-35.976 27.705l-.321.41c-14.337 18.42-9.706 45.162-2.95 68.163s15.105 41.76 35.949 49.984c9.508 3.751 19.612 5.428 29.702 6.154 22.064 1.587 46.55-2.484 61.129-20.595 12.506-15.536 14.845-38.297 11.227-58.58-3.052-17.112-10.138-33.266-20.083-46.891-8.862-12.14-19.809-23.404-33.243-29.161-4.104-1.761-8.291-2.781-12.508-3.213z"></path>
    </g>
</svg>