<svg id="visual" viewBox="0 0 900 900" width="900" height="900" xmlns="http://www.w3.org/2000/svg" xmlns:xlink="http://www.w3.org/1999/xlink" version="1.1"><g transform="translate(469.61819841837706 461.4593441222592)"><path d="M290.6 -348.1C371.2 -278.7 427.3 -182 435.7 -84.2C444.1 13.5 404.8 112.2 348.7 193.8C292.6 275.3 219.8 339.7 128.7 387.5C37.6 435.4 -71.8 466.7 -158.8 435.5C-245.8 404.2 -310.4 310.3 -368.5 211.8C-426.6 113.2 -478.2 9.9 -476 -98C-473.7 -205.9 -417.7 -318.4 -329.3 -386.5C-241 -454.6 -120.5 -478.3 -7.8 -469C105 -459.8 210 -417.6 290.6 -348.1" fill="#ffffff"></path></g></svg>