<svg data-bbox="23 26 154 148" viewBox="0 0 200 200" height="200" width="200" xmlns="http://www.w3.org/2000/svg" data-type="shape">
    <g>
        <path d="M90.728 163.333c0 5.882-4.771 10.667-10.637 10.667-5.865 0-10.637-4.785-10.637-10.667 0-5.881 4.771-10.666 10.637-10.666 5.865 0 10.637 4.785 10.637 10.666zm62.363-10.666c-5.865 0-10.637 4.785-10.637 10.666 0 5.882 4.771 10.667 10.637 10.667s10.637-4.785 10.637-10.667c-.001-5.881-4.772-10.666-10.637-10.666zm23.839-88.588-10.618 55.934c-1.637 8.278-8.863 14.156-17.279 13.986l-64.43.001-.332.003c-8.163 0-15.256-5.822-16.864-13.961l-11.1-55.708a4.093 4.093 0 0 1-.086-.433L50.265 34H27a4 4 0 0 1 0-8h26.546a4 4 0 0 1 3.923 3.219l6 30.114H173a4 4 0 0 1 3.93 4.746zm-8.761 3.254H65.062l10.191 51.152c.866 4.384 4.674 7.517 9.093 7.517l.18-.001 64.583-.001a9.325 9.325 0 0 0 9.349-7.51l9.711-51.157z"></path>
    </g>
</svg>