<svg preserveAspectRatio="xMidYMid meet" data-bbox="20 37.5 160 125.013" viewBox="20 37.5 160 125.013" height="200" width="200" xmlns="http://www.w3.org/2000/svg" data-type="color" role="presentation" aria-hidden="true" aria-label="">
    <g>
        <path d="M157.8 102.1c0 33.4-26.9 60.4-60.2 60.4-33.2 0-60.2-27.1-60.2-60.4 0-33.4 26.9-60.4 60.2-60.4 33.2-.1 60.2 27 60.2 60.4z" fill="#e2a77f" data-color="1"></path>
        <path d="M78.8 120.7c0 4.9-4 8.9-8.8 8.9-4.9 0-8.8-4-8.8-8.9s4-8.9 8.8-8.9 8.8 4 8.8 8.9z" fill="#ffd9ae" data-color="2"></path>
        <path d="M74.1 82.1c0 3.4-2.7 6.1-6.1 6.1-3.3 0-6.1-2.7-6.1-6.1 0-3.4 2.7-6.1 6.1-6.1 3.4 0 6.1 2.7 6.1 6.1z" fill="#ffd9ae" data-color="2"></path>
        <path d="M97.6 162.5c33.2 0 60.2-27.1 60.2-60.4 0-17.2-7.1-32.7-18.6-43.7-11.1-1.4-23.8-1.3-32 3.8-14.4 9.1-8.2 19.6-9.6 37.8-1.4 18.2-6.2 35.4-21.9 41.4-12.9 5-24.2-.6-24.2-.6 11.1 13.3 27.6 21.7 46.1 21.7z" fill="#ffd9ae" data-color="2"></path>
        <path d="M151 129.9c5.7-10.9 7.9-23.3 6.3-35.5-20.5-7.1-18.9.4-27.9 15-9.6 15.5-15.1-1.6-25.2 25.1-5.9 15.6-30.2 15.2-46.3 13 3.6 3.2 7.7 6 11.9 8.2 29.6 15.4 65.9 3.8 81.2-25.8z" fill="#a279a5" data-color="3"></path>
        <path d="M113 92.9c0 7.3-5.9 13.2-13.2 13.2s-13.2-5.9-13.2-13.2 5.9-13.2 13.2-13.2S113 85.6 113 92.9z" fill="#a279a5" data-color="3"></path>
        <path d="M37.4 64.4c.1-.6-2-.7-2.3-.9-.3-.2-.2-1.3-.3-1.7-.1-.3-.2-1-.6-1-.4 0-.7.7-.7 1.1-.1.4-.1 1.2-.2 1.5-.1.4-2.7-.1-2.7.8 0 .7 2.4.8 2.6 1.1.3.3-.2 2.6.8 2.6.8 0 .6-2.5 1-2.6 1.1-.3 2.4-.3 2.4-.9z" fill="#a279a5" data-color="3"></path>
        <path d="M170.1 126c.1-.6-2-.7-2.3-.9-.3-.2-.2-1.3-.3-1.7-.1-.3-.2-1-.6-1-.4 0-.7.7-.7 1.1-.1.4-.1 1.2-.2 1.5s-2.7-.1-2.7.8c0 .7 2.4.8 2.6 1.1.3.3-.2 2.6.8 2.6.8 0 .6-2.5 1-2.6 1.1-.3 2.4-.3 2.4-.9z" fill="#a279a5" data-color="3"></path>
        <path d="M27.7 110.5c.1-.4-1.3-.4-1.5-.5-.2-.1-.1-.8-.2-1.1-.1-.2-.1-.6-.4-.6-.3 0-.4.4-.5.7 0 .3-.1.7-.1 1-.1.2-1.7-.1-1.7.5 0 .4 1.5.5 1.7.7s-.1 1.6.5 1.6c.5 0 .4-1.6.7-1.7.7-.2 1.5-.2 1.5-.6z" fill="#a279a5" data-color="3"></path>
        <path d="M47.3 45.9c.2-1-3.2-1-3.7-1.4s-.3-2-.5-2.7c-.2-.5-.3-1.6-.9-1.6-.7 0-1 1.1-1.1 1.7-.1.6-.1 1.9-.3 2.5-.1.6-4.2-.2-4.2 1.2 0 1.1 3.8 1.3 4.2 1.8.4.5-.2 4.1 1.3 4.1 1.3 0 .9-3.9 1.7-4.2 1.4-.4 3.5-.4 3.5-1.4z" fill="#a279a5" data-color="3"></path>
        <path d="M166.7 145.7c.2-1-3.2-1-3.7-1.4-.4-.3-.3-2-.5-2.7-.2-.5-.3-1.6-.9-1.6-.7 0-1 1.1-1.1 1.7-.1.6-.1 1.9-.3 2.5-.1.6-4.2-.2-4.2 1.2 0 1.1 3.8 1.3 4.2 1.8.4.5-.2 4.1 1.3 4.1 1.3 0 .9-3.9 1.7-4.2 1.5-.4 3.5-.4 3.5-1.4z" fill="#a279a5" data-color="3"></path>
        <path d="M137.5 133.5c.1-.6-1.8-.6-2.1-.8-.2-.2-.2-1.1-.3-1.5-.1-.3-.2-.9-.5-.9-.4 0-.6.6-.6 1-.1.4-.1 1-.1 1.4-.1.3-2.4-.1-2.4.7 0 .6 2.1.7 2.4 1 .2.3-.1 2.3.7 2.3.7 0 .5-2.2.9-2.4.8-.2 2-.2 2-.8z" fill="#ffd9ae" data-color="2"></path>
        <path d="M23.4 49.8c0 .9-.8 1.7-1.7 1.7s-1.7-.7-1.7-1.7c0-.9.8-1.7 1.7-1.7s1.7.8 1.7 1.7z" fill="#ffd9ae" data-color="2"></path>
        <path d="M180 140.1c0 .9-.8 1.7-1.7 1.7-.9 0-1.7-.8-1.7-1.7 0-.9.8-1.7 1.7-1.7.9 0 1.7.7 1.7 1.7z" fill="#ffd9ae" data-color="2"></path>
        <path d="M162.4 64.9c0 1.9-1.6 3.5-3.5 3.5s-3.5-1.6-3.5-3.5 1.6-3.5 3.5-3.5 3.5 1.6 3.5 3.5z" fill="#ffd9ae" data-color="2"></path>
        <path d="M61.2 38.8c0 .7-.6 1.3-1.3 1.3-.7 0-1.3-.6-1.3-1.3 0-.7.6-1.3 1.3-1.3.7 0 1.3.6 1.3 1.3z" fill="#a279a5" data-color="3"></path>
        <path d="M23 102.1c0 .7-.6 1.3-1.3 1.3s-1.3-.6-1.3-1.3c0-.7.6-1.3 1.3-1.3s1.3.5 1.3 1.3z" fill="#a279a5" data-color="3"></path>
        <path d="M147.8 152.7c0 .7-.6 1.3-1.3 1.3-.7 0-1.3-.6-1.3-1.3 0-.7.6-1.3 1.3-1.3.7 0 1.3.6 1.3 1.3z" fill="#a279a5" data-color="3"></path>
        <path d="M138.8 76.6c0 .7-.6 1.3-1.3 1.3s-1.3-.6-1.3-1.3c0-.7.6-1.3 1.3-1.3.7 0 1.3.6 1.3 1.3z" fill="#a279a5" data-color="3"></path>
        <path d="M152.3 55.4c0 .7-.6 1.3-1.3 1.3-.7 0-1.3-.6-1.3-1.3 0-.7.6-1.3 1.3-1.3.7-.1 1.3.5 1.3 1.3z" fill="#a279a5" data-color="3"></path>
    </g>
</svg>