<svg id="Livello_1" data-name="Livello 1" xmlns="http://www.w3.org/2000/svg" viewBox="0 0 114.83 127.54"><defs><style>.cls-1{fill:#2d3b5d;}</style></defs><path class="cls-1" d="M5.06,77.69c.19-1.06.36-2.12.57-3.18A13.53,13.53,0,0,1,8.1,68.7a1,1,0,0,0,.08-.86A14.51,14.51,0,0,1,8.35,54.4a1.26,1.26,0,0,0-.07-1A14.67,14.67,0,0,1,7.5,41.62a5.11,5.11,0,0,1,4.74-4c7.12-.73,14.21-1.67,21.32-2.52,5.26-.63,10.5-1.4,15.78-1.82a46.4,46.4,0,0,1,8.57.29c7.25.76,14.48,1.69,21.72,2.54l21.92,2.59c1.84.22,3.68.45,5.53.64a1.63,1.63,0,0,1,1.67,1.46c.12.88-.4,1.39-1.19,1.78a2.38,2.38,0,0,0-1.07,1.1,11.88,11.88,0,0,0,0,9.25,2.65,2.65,0,0,0,1.2,1.08,1.65,1.65,0,0,1,.07,3.1,3,3,0,0,0-1.31,1.24,11.76,11.76,0,0,0,0,9.06,3,3,0,0,0,1.31,1.22c.64.38,1.19.84,1,1.57-.14.54-.58,1.31-1,1.42a3.57,3.57,0,0,0-2.4,2.39,18,18,0,0,0-1.25,9.72,34.34,34.34,0,0,0,1.51,5.84,2.41,2.41,0,0,0,2,1.78A1.42,1.42,0,0,1,108.82,93a1.57,1.57,0,0,1-1.52,1.5l-8.44,1-6.23.75c0,2,0,4,0,6a2.66,2.66,0,0,1-.56,1.54,1.55,1.55,0,0,1-2.44-.37c-1.09-1.41-2.14-2.84-3.31-4.39-1.08,1.8-2.08,3.5-3.13,5.17a18.09,18.09,0,0,1-1.28,1.64H80.67a2.47,2.47,0,0,1-1-2.35c.07-1.86,0-3.74,0-5.67-3,.35-5.77.72-8.59,1a29.1,29.1,0,0,1-5.42.35c-4.3-.35-8.58-.95-12.86-1.46L31.17,95.21c-6.53-.77-13-1.57-19.59-2.29a4.48,4.48,0,0,1-3.57-2,24,24,0,0,1-2.1-4.55,30,30,0,0,1-.85-4Zm97.37-5.26-1,.08L88.7,74c-7,.84-14,1.73-21,2.48a3.14,3.14,0,0,0-2.77,2.12,11.71,11.71,0,0,0-.67,1.79,20.85,20.85,0,0,0-.47,9.83,24.51,24.51,0,0,0,1.52,4.57A1.87,1.87,0,0,0,67.65,96c1.89-.35,3.82-.48,5.73-.71l6.22-.76V85c-.25,0-.45-.06-.64-.1a1.53,1.53,0,0,1-1.34-1.64A1.5,1.5,0,0,1,79,81.71c.33-.06.66-.11,1-.15l6.23-.76c2.31-.28,4.62-.57,6.93-.83a1.65,1.65,0,0,1,1.92,1.38,1.62,1.62,0,0,1-1.48,1.83l-.9.17V93L103,91.76C100,85.34,100.07,79,102.43,72.43ZM24.11,53.81c0-.32-.06-.48-.06-.64-.05-2.46-.13-4.91-.12-7.37a1.55,1.55,0,0,1,1.66-1.55A1.64,1.64,0,0,1,27.14,46c0,.2,0,.4,0,.61,0,1.88,0,3.77.1,5.65s.24,1.9,2.12,2.13l1,.14,27.25,3.2c1.66.2,3.32.37,5.08.56A16.15,16.15,0,0,1,63,47.08c-1.14-.14-2.2-.28-3.27-.4l-20-2.37c-6.1-.72-12.21-1.41-18.31-2.14a.77.77,0,0,0-1,.65,16.78,16.78,0,0,0-.06,10,1.11,1.11,0,0,0,.72.65C22,53.62,23,53.69,24.11,53.81Zm23.2,20.64c-.48-.07-.9-.15-1.33-.2-6.6-.78-13.21-1.52-19.81-2.34a1.14,1.14,0,0,0-1.44.79c-2.57,5.92-2.37,11.88-.28,17.85a1.45,1.45,0,0,0,1,.7c5.52.69,11.05,1.34,16.58,2,1.63.19,3.26.36,5,.55A29.93,29.93,0,0,1,47.31,74.45Zm4-2.82a21.94,21.94,0,0,1,.54-11.27L41,59.06c-9.49-1.11-19-2.19-28.45-3.36a1.5,1.5,0,0,0-1.88,1.14,13,13,0,0,0-.17,8.43,2.38,2.38,0,0,0,2.29,1.87c9.22,1,18.43,2.14,27.65,3.22l4.15.45c-.07-.37-.1-.6-.15-.83a18.45,18.45,0,0,1-.15-7.93c.26-1.17,1-1.76,2-1.55s1.39,1,1.18,2.2a15.84,15.84,0,0,0,.15,6.54c.47,2,.46,2,2.42,2.21C50.42,71.49,50.78,71.55,51.35,71.63Zm51.8-13.85c-.49,0-.89,0-1.28.08l-33,4c-2.8.34-3.24.78-3.66,3.63,0,.23-.08.46-.1.7A11.87,11.87,0,0,0,66,72.51c.24.52.51,1,1.28.86,2.27-.32,4.55-.56,6.83-.84L97,69.78l6.57-.8A16,16,0,0,1,103.15,57.78Zm0-14.6c-.63,0-1.13.08-1.62.14L85.37,45.26c-6,.72-12.06,1.44-18.08,2.21a1.74,1.74,0,0,0-1.2.84,13.92,13.92,0,0,0-.92,3.28A11.2,11.2,0,0,0,66,57.92c.25.53.52.95,1.29.86q15.92-2,31.84-3.83l4.42-.57A16.22,16.22,0,0,1,103.16,43.18ZM92.81,41.09a3.26,3.26,0,0,0-.55-.24L79.59,39.38c-7.17-.84-14.34-1.75-21.52-2.51a47.4,47.4,0,0,0-8.66-.33C44,37,38.68,37.75,33.32,38.39l-7,.87a1.27,1.27,0,0,0,.74.3c3.72.44,7.44.85,11.16,1.29,8.31,1,16.62,2,24.93,3a21.89,21.89,0,0,0,4.42.28c4.19-.4,8.38-1,12.56-1.47ZM62.51,76.18c-1.58-.18-3-.31-4.39-.53-.75-.12-1.06.16-1.32.83a23.61,23.61,0,0,0-1.33,11.64,40.79,40.79,0,0,0,1.65,6.22c.08.28.37.67.6.7,1.36.22,2.73.34,4.23.51a25,25,0,0,1-1.77-9.7A22.16,22.16,0,0,1,62.51,76.18ZM14.46,90c-1.81-6.59-1.83-13,.72-19.32-1-.12-1.95-.17-2.86-.37a1.63,1.63,0,0,0-2,.87,12.85,12.85,0,0,0-1,2.18,20.93,20.93,0,0,0-.9,8.89,14.4,14.4,0,0,0,1.66,6,3.14,3.14,0,0,0,1.38,1.37A15.81,15.81,0,0,0,14.46,90Zm48.19-17A16.21,16.21,0,0,1,63,61.66c-2.39-.28-4.66-.52-6.93-.83-.69-.09-1,.19-1.16.78a16.6,16.6,0,0,0-.21,9.84,1,1,0,0,0,.64.6C57.72,72.37,60.09,72.64,62.65,72.94ZM83,84.47V98.26c.62-1,1.09-1.82,1.58-2.61.92-1.47,2.08-1.54,3.13-.18l1.64,2.14V83.71ZM17.36,41.69c-1.77-.21-3.38-.35-5-.61a1.17,1.17,0,0,0-1.5.78,12.1,12.1,0,0,0,0,9.62c.14.32.42.77.69.81,1.77.28,3.56.47,5.42.69A21.21,21.21,0,0,1,17.36,41.69Zm3.56,49c-1.79-6.58-1.81-13,.75-19.3a14,14,0,0,1-1.89-.25c-.85-.23-1.26.07-1.59.86A23.83,23.83,0,0,0,18,89.86c.08.22.29.53.48.56C19.24,90.57,20,90.62,20.92,90.71ZM53.76,75.19c-.8-.11-1.5-.18-2.18-.31s-1,0-1.13.65a48.83,48.83,0,0,0-1.46,6,22.34,22.34,0,0,0,1.54,12c.13.29.33.71.57.76a24.36,24.36,0,0,0,2.46.3A30.13,30.13,0,0,1,53.76,75.19Z"/></svg>