<svg id="Livello_1" data-name="Livello 1" xmlns="http://www.w3.org/2000/svg" viewBox="0 0 114.83 127.54"><defs><style>.cls-1{fill:#2d3b5d;}</style></defs><path class="cls-1" d="M9.25,49a2.59,2.59,0,0,1,2.56-1.34c8.43,0,16.87,0,25.3,0H38.3V43.47c-.54,0-1,0-1.53,0a2,2,0,0,1-2.18-2.18c0-1.88,0-3.77,0-5.65a2,2,0,0,1,2.1-2.17c.37,0,.75,0,1.12,0H56V16.11c0-.32,0-.63,0-.94a1.37,1.37,0,0,1,1.43-1.33,1.36,1.36,0,0,1,1.35,1.31c0,.28.05.55.08.94h1c3.23,0,6.46,0,9.69,0,1.93,0,2.93.95,3,2.85q0,3.76,0,7.53a2.54,2.54,0,0,1-2.86,2.83H58.9v4.16H77.45c2.15,0,2.79.64,2.8,2.8,0,1.57,0,3.14,0,4.71,0,1.78-.73,2.48-2.53,2.5H76.53V47.7h26.56c1.87,0,2.49.61,2.49,2.46V54c0,1.71-.55,2.29-2.27,2.42l-.54.07v47.22c0,2.33-.71,3-3,3H15.09c-2.3,0-3-.72-3-3V82.48a6,6,0,0,1,0-.85,1.29,1.29,0,0,1,1.29-1.24,1.33,1.33,0,0,1,1.48,1.15,4.21,4.21,0,0,1,0,.94q0,10.15,0,20.32v1.09H38.3V56.5H14.89v1q0,8.57,0,17.12a3.47,3.47,0,0,1-.09,1,1.3,1.3,0,0,1-1.42,1,1.34,1.34,0,0,1-1.28-1.18,5.83,5.83,0,0,1,0-.94V56.43c-1.25.11-2.3-.15-2.81-1.4Zm32-5.54v60.42h3.55v-2.5c0-2.46.35-3,2.66-3.82V81.51c0-2.17.85-3,3-3H64.12c2.43,0,3.23.79,3.23,3.19v16C69.47,98.24,70,99,70,101.16c0,.9,0,1.8,0,2.75h3.56V43.47H61a4.63,4.63,0,0,1-1.12-.09,1.25,1.25,0,0,1-1-1.4,1.23,1.23,0,0,1,1-1.26,7.07,7.07,0,0,1,1.13-.07H77.35V36.36H37.46v4.29H53.2a5.28,5.28,0,0,1,1.13.07,1.11,1.11,0,0,1,1,1.27,2.67,2.67,0,0,1-.92,1.35c-.23.19-.72.12-1.09.12h-12Zm35.24,60.42h23.4V56.51H76.51ZM58.89,81.35V97.64h5.55V81.35Zm-3,16.31V81.36H50.37v16.3ZM69.65,26.44V19H58.88v7.48ZM12.1,53.54H38.32V50.59H12.1Zm90.62-2.95H76.53v2.95h26.19Zm-35.59,50H47.7v3.25H67.13Z"/><path class="cls-1" d="M26.67,73.51H20.56a2.14,2.14,0,0,1-2.45-2.4c0-1.95,0-3.89,0-5.83a2.11,2.11,0,0,1,2.37-2.39q6.25,0,12.51,0a2.1,2.1,0,0,1,2.35,2.31q0,3,0,6A2.09,2.09,0,0,1,33,73.5C30.87,73.52,28.77,73.51,26.67,73.51Zm5.79-2.86V65.76H28.2v4.89ZM21,65.75v4.87h4.23V65.75Z"/><path class="cls-1" d="M26.69,87.62c-2.07,0-4.14,0-6.21,0a2.11,2.11,0,0,1-2.37-2.38c0-2,0-3.89,0-5.83A2.11,2.11,0,0,1,20.46,77H33a2.11,2.11,0,0,1,2.37,2.39c0,1.94,0,3.88,0,5.83a2.13,2.13,0,0,1-2.44,2.4C30.83,87.63,28.76,87.62,26.69,87.62Zm5.76-2.88V79.88H28.18v4.86Zm-7.21,0V79.87H21v4.88Z"/><path class="cls-1" d="M57.38,70.7A11.85,11.85,0,1,1,69.23,58.87,11.86,11.86,0,0,1,57.38,70.7Zm0-2.83a9,9,0,1,0-9-9A9,9,0,0,0,57.43,67.87Z"/><path class="cls-1" d="M88.09,87.62c-2.07,0-4.14,0-6.2,0a2.12,2.12,0,0,1-2.4-2.36c0-2,0-4,0-5.92A2.09,2.09,0,0,1,81.81,77q6.3,0,12.6,0a2.1,2.1,0,0,1,2.31,2.36c0,2,0,4,0,5.92a2.11,2.11,0,0,1-2.33,2.34C92.29,87.63,90.19,87.62,88.09,87.62Zm-1.45-7.74H82.36v4.86h4.28Zm2.94,4.86h4.25V79.88H89.58Z"/><path class="cls-1" d="M88,73.51c-2.07,0-4.14,0-6.2,0a2.1,2.1,0,0,1-2.35-2.31q0-3,0-6a2.07,2.07,0,0,1,2.28-2.29q6.35,0,12.69,0a2.07,2.07,0,0,1,2.25,2.31c0,2,0,4,0,6a2.07,2.07,0,0,1-2.27,2.29C92.31,73.52,90.17,73.51,88,73.51Zm-1.41-2.88V65.76H82.36v4.87Zm7.22-4.88H89.6v4.86h4.25Z"/><path class="cls-1" d="M58.81,58.82c.66,0,1.15,0,1.65,0A1.41,1.41,0,0,1,62,60.3a1.38,1.38,0,0,1-1.5,1.34c-1,0-2,0-2.92,0A1.35,1.35,0,0,1,56,60.21c0-1.72,0-3.44,0-5.17a1.39,1.39,0,1,1,2.78,0C58.84,56.26,58.81,57.48,58.81,58.82Z"/></svg>