<svg preserveAspectRatio="xMidYMid meet" data-bbox="32.852 40.782 133.195 123.899" viewBox="32.852 40.782 133.195 123.899" height="200" width="200" xmlns="http://www.w3.org/2000/svg" data-type="color" role="presentation" aria-hidden="true" aria-label="">
    <g>
        <path d="M164.631 49.02c-4.562-8.727-13.63-9.022-22.027-7.584-10.487 1.796-16.035 8.915-24.271 14.904-6.132 4.458-12.059 3.863-19.259 3.49-6.341-.328-10.156.311-15.745 3.241-4.085 2.141-7.689 4.512-8.922 9.207-2.15 8.185.901 16.61-10.502 17.302-10.214.62-20.571 6.304-22.591 17.041-1.027 5.458-.082 11.476 1.436 16.763.944 3.287 2.266 6.512 3.314 9.777.341 1.061 1.712 3.163 2.725 4.925.058.486.118.971.167 1.462.459 4.536 1.633 7.279 5.687 9.645 8.773 5.12 22.973 7.829 32.781 4.573 9.028-2.997 15.473-11.487 19.266-19.824 2.582-5.672 3.102-9.316 9.94-10.583 5.892-1.091 11.401-1.318 16.409-4.975 8.668-6.328 9.87-15.412 6.066-24.827-1.086-2.687-1.849-5.441-1.512-8.376.481-4.188 1.496-4.625 4.814-6.057 4.871-2.101 10.664-3.612 14.583-7.301 5.878-5.535 11.853-14.746 7.641-22.803z" fill="#17A571" data-color="1"></path>
        <path d="M34.719 164.381c1.409-1.315 1.835-3.231 2.767-4.853 1.077-1.875 2.33-3.768 3.936-5.227 1.682-1.528 3.61-2.779 5.12-4.493 1.345-1.528 2.416-3.275 3.763-4.799.675-.763 1.41-1.503 2.331-1.963.896-.448 1.901-.635 2.767-1.155 1.056-.634 1.369-1.563 2.083-2.506.64-.846 1.64-.912 2.357-1.685 1.655-1.781 3.15-3.707 4.931-5.37 1.748-1.631 3.462-3.271 5.085-5.03 3.287-3.563 6.365-7.308 9.818-10.717 3.634-3.587 7.482-6.946 11.371-10.252 1.858-1.58 3.683-3.154 5.391-4.897 1.731-1.766 3.43-3.535 5.345-5.107 1.841-1.511 3.767-2.923 5.5-4.561 1.883-1.779 3.7-3.628 5.581-5.409 4.024-3.812 8.105-7.767 12.632-10.978 1.888-1.34 2.956-3.208 4.537-4.837 1.809-1.863 4.049-3.208 6.635-3.593 1.373-.205.789-2.291-.575-2.087-2.159.322-4.108 1.273-5.827 2.6-1.652 1.275-2.748 2.825-4.066 4.405-1.412 1.692-3.505 2.84-5.184 4.261-1.985 1.68-3.937 3.4-5.86 5.15-3.799 3.458-7.305 7.306-11.252 10.587-1.892 1.573-3.889 3.021-5.687 4.705-1.796 1.682-3.424 3.536-5.218 5.222-3.741 3.516-7.829 6.663-11.598 10.155-3.693 3.421-7.075 7.083-10.404 10.854-1.568 1.776-3.148 3.543-4.818 5.224-1.791 1.804-3.713 3.444-5.399 5.353-.726.822-1.434 1.66-2.172 2.471-.637.7-1.479.852-2.18 1.479-.856.767-1.17 2.049-2.118 2.695-.93.634-2.148.773-3.123 1.348-1.882 1.108-3.197 3.02-4.474 4.735-1.532 2.057-3.205 3.688-5.198 5.296-2.041 1.648-3.561 3.416-4.984 5.613-.602.929-1.152 1.823-1.605 2.837-.469 1.051-.881 2.199-1.74 3-1.019.951.514 2.48 1.532 1.529z" fill="#1E815A" data-color="2"></path>
        <path d="M62.767 131.633l.227-16.882a98.137 98.137 0 0 0-.074-5.894c-.067-1.453-.328-3.706.921-4.752 1.069-.895-.469-2.419-1.531-1.531-1.354 1.133-1.561 3.093-1.587 4.745-.032 2.005.152 4.005.125 6.013l-.246 18.3c-.019 1.395 2.146 1.395 2.165.001z" fill="#1E815A" data-color="2"></path>
        <path d="M75.075 118.654l.245-18.197c.019-1.393-2.146-1.394-2.164 0l-.245 18.197c-.02 1.394 2.145 1.394 2.164 0z" fill="#1E815A" data-color="2"></path>
        <path d="M53.765 121.689c.159-.639.196-1.25-.039-1.873-.202-.533-.645-.888-.882-1.392-.606-1.289.018-3.205.06-4.573.12-3.916-.875-7.771-.864-11.686.004-1.393-2.161-1.395-2.164 0-.011 3.797.905 7.528.869 11.325-.015 1.571-.398 3.141-.178 4.71.088.631.292 1.18.662 1.701.32.451.592.637.449 1.212-.335 1.353 1.751 1.929 2.087.576z" fill="#1E815A" data-color="2"></path>
        <path d="M86.603 88.476c.016-1.268.017-2.536.028-3.804.011-1.214-.064-2.494.108-3.698.288-2.021 1.359-3.816 1.014-5.914-.095-.577-.81-.899-1.331-.756-.613.168-.851.752-.756 1.331.139.845-.209 1.787-.444 2.585-.28.951-.568 1.894-.664 2.886-.234 2.431-.088 4.93-.119 7.37-.018 1.393 2.147 1.394 2.164 0z" fill="#1E815A" data-color="2"></path>
        <path d="M99.347 93.953c-.925-.794-.948-2.251-.959-3.378-.014-1.49.158-2.972.297-4.453.367-3.934-.876-7.729-.77-11.649.038-1.393-2.127-1.392-2.164 0-.064 2.362.395 4.662.682 6.995.222 1.802.196 3.537.022 5.334-.254 2.623-.928 6.716 1.362 8.682 1.051.902 2.589-.622 1.53-1.531z" fill="#1E815A" data-color="2"></path>
        <path d="M108.885 85.742c.045-2.978.433-5.853.895-8.788.165-1.047.095-2.099.133-3.153.033-.916.126-1.825.88-2.431.459-.369.377-1.145 0-1.531-.445-.455-1.077-.364-1.531 0-1.976 1.587-1.324 4.297-1.568 6.484-.164 1.465-.496 2.916-.665 4.385a50.999 50.999 0 0 0-.31 5.034c-.02 1.393 2.144 1.394 2.166 0z" fill="#1E815A" data-color="2"></path>
        <path d="M122.136 77.831c.021-1.913-.028-3.828.069-5.739.087-1.71.443-3.321.734-4.997.214-1.229.368-2.468.661-3.682.263-1.087.596-2.243 1.497-2.973 1.082-.878-.457-2.401-1.531-1.531-2.085 1.69-2.27 4.966-2.681 7.409-.286 1.701-.68 3.355-.804 5.084-.153 2.139-.087 4.286-.11 6.429-.015 1.394 2.149 1.395 2.165 0z" fill="#1E815A" data-color="2"></path>
        <path d="M71.37 142.922c4.819 1.291 6.54-4.666 8.506-7.746.066-.104.134-.206.204-.307.032-.046.242-.327.144-.202-.105.135.113-.132.148-.172.07-.078.141-.154.217-.226.036-.035.286-.248.135-.128-.154.122.097-.062.143-.089.037-.022.085-.038.118-.064.122-.096-.17.023-.091.035.057.009.209-.064.272-.077.573-.116.903-.796.756-1.331-.164-.596-.757-.872-1.331-.756-1.781.361-2.766 2.446-3.523 3.893-.477.912-.935 1.836-1.47 2.716a14.248 14.248 0 0 1-.564.858c-.032.045-.066.089-.098.135-.142.201.114-.129-.031.041-.146.172-.289.346-.446.509a6.394 6.394 0 0 1-.22.216c-.044.041-.312.271-.205.184.108-.086-.168.117-.219.15a3.712 3.712 0 0 1-.28.163c-.042.022-.087.04-.128.064-.194.111.196-.052-.004.001-.115.03-.225.076-.341.103-.045.011-.096.017-.141.03-.218.066.23 0-.001.002-.125.001-.25.015-.375.012-.064-.002-.386-.037-.249-.016.184.029-.086-.02-.099-.023-.083-.02-.167-.039-.25-.061-1.349-.362-1.923 1.726-.577 2.086z" fill="#1E815A" data-color="2"></path>
        <path d="M87.08 123.957l16.175.218c1.393.019 1.394-2.146 0-2.164l-16.175-.218c-1.393-.019-1.394 2.145 0 2.164z" fill="#1E815A" data-color="2"></path>
        <path d="M86.697 111.678c3.785 1.887 8.066 1.266 12.146 1.315 4.891.059 9.781.132 14.672.197 1.393.019 1.394-2.146 0-2.164l-13.693-.184c-3.876-.052-8.44.758-12.031-1.033-1.244-.62-2.342 1.247-1.094 1.869z" fill="#1E815A" data-color="2"></path>
        <path d="M100.563 98.86c3.666.048 7.414.324 11.072.091 3.551-.226 6.998-1.162 10.472-1.866 1.364-.277.787-2.363-.575-2.087-3.41.691-6.804 1.651-10.296 1.811-3.536.162-7.132-.067-10.673-.113-1.394-.018-1.394 2.146 0 2.164z" fill="#1E815A" data-color="2"></path>
    </g>
</svg>