<svg preserveAspectRatio="xMidYMid meet" data-bbox="48.5 20 103.001 160.002" xmlns="http://www.w3.org/2000/svg" width="200" height="200" viewBox="48.5 20 103.001 160.002" data-type="color" role="presentation" aria-hidden="true" aria-label=""><defs><style>#comp-m33e8vxt svg [data-color="1"] {fill: #FFBFA1;}
#comp-m33e8vxt svg [data-color="2"] {fill: #38C68B;}
#comp-m33e8vxt svg [data-color="3"] {fill: #FA854F;}
#comp-m33e8vxt svg [data-color="4"] {fill: #FF4040;}</style></defs>
    <g>
        <path fill="#FF6161" d="M105.205 45.889S85.893 58.425 79.436 57.942c-9.201-.689-22.626-27.195-26.939-24.528-8.463 5.232 9.919 36.27 24.049 38.205 20.746 2.84 31.377-13.788 31.377-13.788l-2.718-11.942z" data-color="1"></path>
        <path opacity=".2" d="M105.205 45.889S85.893 58.425 79.436 57.942c-9.201-.689-22.626-27.195-26.939-24.528-8.463 5.232 9.919 36.27 24.049 38.205 20.746 2.84 31.377-13.788 31.377-13.788l-2.718-11.942z"></path>
        <path opacity=".2" d="M72.279 70.249c1.444.702 2.876 1.178 4.267 1.369.731.1 1.449.174 2.155.227l-2.452-15.004a14.824 14.824 0 01-1.012-.641l-2.958 14.049z"></path>
        <path fill="#F99E26" d="M61.454 28.182l.002.003c2.166-6.247-6.472-11.336-10.493-5.845h.005c-.491.673-.821 1.43-1.052 2.225l-.011-.004c-.925 3.182 1.373 5.002 1.795 7.913.334 2.301-1.457 4.253-2.54 6.097-.876 1.491-1.179 3.668 1.006 4.196 4.095 1.86 3.317-5.865 4.063-7.684.909-2.216 3.271-2.583 5.042-3.885v-.002c.886-.651 1.679-1.554 2.183-3.014z" data-color="2"></path>
        <path fill="#FF6161" d="M59.19 27.372l-2.515.447-.426-2.143-2.542.938-.485-2.707-3.157.2a8.12 8.12 0 00-.149.457l-.011-.004a5.118 5.118 0 00-.193 1.901l1.506-.278.857 2.742 2.826-.9.053 1.798 3.197-.363.561 2.108a7.64 7.64 0 00.56-.371v-.002a5.926 5.926 0 001.391-1.429l-1.473-2.394z" data-color="1"></path>
        <path opacity=".2" d="M59.272 31.196c.885-.651 1.678-1.554 2.182-3.014l.002.003c1.133-3.27-.694-6.219-3.268-7.503.415 1.213.766 2.889.266 4.344-.907 2.638-2.907 5.463-4.841 8.077-1.463 1.977-2.742 7.269-3.278 9.73 3.902 1.569 3.16-5.957 3.895-7.751.909-2.216 3.271-2.583 5.042-3.885v-.001z"></path>
        <path opacity=".2" d="M59.19 27.372l-2.515.447-.426-2.143-2.542.938-.485-2.707-3.157.2a8.12 8.12 0 00-.149.457l-.011-.004a5.118 5.118 0 00-.193 1.901l1.506-.278.857 2.742 2.826-.9.053 1.798 3.197-.363.561 2.108a7.64 7.64 0 00.56-.371v-.002a5.926 5.926 0 001.391-1.429l-1.473-2.394z"></path>
        <path fill="#FF6161" d="M55.268 35.339c-.222-.948-1.018-1.67-1.887-2.198.141-.179.178-.359.025-.526-.631-.682-3.8-2.443-4.144-1.197-.343 1.246-.638 3.448-.726 4.481-.123 1.439 1.533 2.536 2.247 1.614.533-.689.659-2.18.69-2.892.268.337.527.712.724 1.095.576 1.118.63 2.274 1.727 2.353.72.051 1.606-1.615 1.344-2.73z" data-color="1"></path>
        <path fill="#F99E26" d="M71.438 76.771l.003.002c-.893-6.552-10.896-7.18-12-.463a.008.008 0 01.004-.002c-.134.823-.086 1.647.068 2.461l-.011.002c.614 3.257 3.486 3.839 5.178 6.244 1.338 1.901.623 4.452.491 6.588-.107 1.726.607 3.805 2.795 3.286 4.493-.195.307-6.732.149-8.692-.191-2.388 1.749-3.784 2.74-5.747l-.001-.002c.496-.982.794-2.146.584-3.677z" data-color="2"></path>
        <path fill="#FF6161" d="M69.053 77.074l-2.041 1.537-1.349-1.718-1.843 1.987-1.657-2.195-2.725 1.608c.021.159.044.317.073.475l-.011.002c.133.706.377 1.282.687 1.782l1.218-.93 2.004 2.058 2.113-2.082.86 1.58 2.686-1.771 1.453 1.626c.118-.19.231-.384.332-.584l-.001-.002a5.888 5.888 0 00.594-1.904l-2.393-1.469z" data-color="1"></path>
        <path opacity=".2" d="M70.854 80.447c.495-.981.794-2.145.584-3.676l.003.002c-.467-3.429-3.43-5.232-6.307-5.212.919.894 1.99 2.23 2.201 3.754.384 2.763-.123 6.188-.666 9.395-.411 2.426.841 7.724 1.476 10.162 4.189-.367.125-6.743-.03-8.676-.191-2.388 1.749-3.784 2.74-5.747l-.001-.002z"></path>
        <path opacity=".2" d="M69.053 77.074l-2.041 1.537-1.349-1.718-1.843 1.987-1.657-2.195-2.725 1.608c.021.159.044.317.073.475l-.011.002c.133.706.377 1.282.687 1.782l1.218-.93 2.004 2.058 2.113-2.082.86 1.58 2.686-1.771 1.453 1.626c.118-.19.231-.384.332-.584l-.001-.002a5.888 5.888 0 00.594-1.904l-2.393-1.469z"></path>
        <path fill="#FF6161" d="M72.793 86.126s-2.586-1.734-3.818-2.023c-.195-.046-.546.069-.652.239-.231.371-.687.956-2.117.792l-.958-.127a.996.996 0 01-.486-.206l-.334-.265a.245.245 0 00-.391.134c-.091.392-.174 1.016.084 1.425.4.634.732 1.042.732 1.042s-.787 2.1.478 2.571c1.265.471 5.749 1.741 6.878.756 1.129-.984 1.119-3.63.584-4.338z" data-color="1"></path>
        <path fill="#8F614D" d="M105.719 45.625s-18.975 8.798-22.761 10.002c-3.786 1.204-8.054.339-8.054.339l-.803 27.579c-.284 9.732 4.848 18.806 13.311 23.61 4.573 2.596 9.106 5.838 11.517 9.435 6.028 8.996 6.79-70.965 6.79-70.965z" data-color="3"></path>
        <path fill="#2E88BF" d="M92.817 78.651c-1.746-9.565-1.278-20.271-.698-26.849a296.896 296.896 0 01-6.161 2.666c-.457 6.889-.582 16.403 1.033 25.248 1.082 5.927 7.209 16.617 16.111 25.077.261-2.384.497-5.013.709-7.796-6.15-6.886-10.286-14.469-10.994-18.346z" data-color="4"></path>
        <path fill="#F99E26" d="M86.924 93.887c-8.475-7.678-5.813-30.943-4.773-38.037-3.56.861-7.247.115-7.247.115L74.1 83.544c-.284 9.732 4.848 18.806 13.311 23.61 3.007 1.707 5.992 3.694 8.372 5.876-1.36-6.851-3.946-14.692-8.859-19.143z" data-color="2"></path>
        <path opacity=".3" d="M105.719 45.625s-18.975 8.798-22.761 10.002c-3.786 1.204-8.054.339-8.054.339l-.803 27.579c-.284 9.732 4.848 18.806 13.311 23.61 4.573 2.596 9.106 5.838 11.517 9.435 6.028 8.996 6.79-70.965 6.79-70.965z"></path>
        <path fill="#311E69" d="M140.58 171.908c.581-.344 1.027-.81 1.243-1.425 4.263-12.105 1.399-45.318 1.399-45.318s-.039-21.182.268-31.695c.095-3.266-1.456-7.756-2.759-8.205-4.472.412-16.365 3.391-27.669 1.285-1.386 3.367-8.375 26.599-8.73 32.719-1.34 23.132 4.125 40.144 5.729 51.755.066.478.757 1.065 1.781 1.558-.07.423-.205.877-.469 1.295-.157.248-3.206 1.506-6.674 2.114-4.091.717-8.829-.557-7.698 1.241 2.643 4.2 19.334 2.689 21.465 1.498 1.115-.622.343-1.973-.679-3.495a6.995 6.995 0 01-.818-1.686c1.987-.151 3.978-.968 5.323-2.973 2.376-3.541-2.295-41.014-2.295-41.014l4.149-25.273c.775 9.355.503 18.628 1.526 26.237 1.532 11.389 3.593 29.82 6.708 40.729.19.665 1.687 1.218 3.441 1.394a3.419 3.419 0 01-.456 1.228c-.157.248-3.206 1.506-6.674 2.114-4.091.717-8.829-.557-7.698 1.241 2.643 4.2 19.333 2.689 21.465 1.498 1.115-.622.343-1.973-.679-3.495-.732-1.092-1.044-2.265-1.199-3.327z" data-color="5"></path>
        <path opacity=".2" d="M140.58 171.908c.581-.344 1.027-.81 1.243-1.425 4.263-12.105 1.399-45.318 1.399-45.318s-.039-21.182.268-31.695c.095-3.266-1.456-7.756-2.759-8.205-4.472.412-16.365 3.391-27.669 1.285-1.386 3.367-8.375 26.599-8.73 32.719-1.34 23.132 4.125 40.144 5.729 51.755.066.478.757 1.065 1.781 1.558-.07.423-.205.877-.469 1.295-.157.248-3.206 1.506-6.674 2.114-4.091.717-8.829-.557-7.698 1.241 2.643 4.2 19.334 2.689 21.465 1.498 1.115-.622.343-1.973-.679-3.495a6.995 6.995 0 01-.818-1.686c1.987-.151 3.978-.968 5.323-2.973 2.376-3.541-2.295-41.014-2.295-41.014l4.149-25.273c.775 9.355.503 18.628 1.526 26.237 1.532 11.389 3.593 29.82 6.708 40.729.19.665 1.687 1.218 3.441 1.394a3.419 3.419 0 01-.456 1.228c-.157.248-3.206 1.506-6.674 2.114-4.091.717-8.829-.557-7.698 1.241 2.643 4.2 19.333 2.689 21.465 1.498 1.115-.622.343-1.973-.679-3.495-.732-1.092-1.044-2.265-1.199-3.327z"></path>
        <path fill="#8F614D" d="M144.666 56.9c-2.713-6.055-11.784-12.242-22.547-13.457-10.669-1.205-19.823 2.237-21.211 6.825-1.427 4.716-3.427 26.507-7.263 43.882-2.478 11.224-7.569 21.345-7.569 21.345l16.225 8.209c7.762 3.927 16.667 5.002 25.124 2.968 9.741-2.342 21.489-6.137 24.053-11.211.366-.723-4.012-52.312-6.812-58.561z" data-color="3"></path>
        <path fill="#2E88BF" d="M149.69 92.601c-14.186 8.69-28.312 11.897-41.985 9.528-7.071-1.225-12.207-3.712-14.743-5.158a92.594 92.594 0 01-1.733 5.814c3.164 1.672 8.335 3.904 15.129 5.124 2.871.516 6.197.871 9.91.871 9.268 0 20.955-2.213 34.032-9.656a992.255 992.255 0 00-.61-6.523z" data-color="4"></path>
        <path opacity=".3" d="M149.69 92.601c-14.186 8.69-28.312 11.897-41.985 9.528-7.071-1.225-12.207-3.712-14.743-5.158a92.594 92.594 0 01-1.733 5.814c3.164 1.672 8.335 3.904 15.129 5.124 2.871.516 6.197.871 9.91.871 9.268 0 20.955-2.213 34.032-9.656a992.255 992.255 0 00-.61-6.523z"></path>
        <path fill="#F99E26" d="M151.479 115.461c.104-.206-.179-4.564-.701-10.826-1.993.397-4.047.911-4.047.911s-20.952 14.873-32.202 13.53c-8.847-1.056-20.306-8.815-24.8-12.083-1.929 5.075-3.652 8.503-3.652 8.503l16.226 8.209c7.762 3.927 16.667 5.002 25.124 2.968 9.74-2.342 21.487-6.137 24.052-11.212z" data-color="2"></path>
        <path fill="#FF6161" d="M138.68 53.285c-6.328-4.067-16.865 17.31-24.565 21.896-9.434 5.619-47.581 8.676-45.001 13.84 2.58 5.164 38.844 3.718 50.51-1.033 11.667-4.751 30.306-27.473 19.056-34.703z" data-color="1"></path>
        <path opacity=".2" d="M114.001 85.44c-9.413 2.349-9.308 1.461-18.999 2.021-9.692.559-2.577-.348-11.356 1.346-8.779 1.693-13.913.926-13.913.926 5.46 4.303 38.798 2.774 49.893-1.744 3.912-1.593 8.607-5.208 12.698-9.581-3.882-5.198-9.308 4.783-18.323 7.032z"></path>
        <path fill="#311E69" d="M103.144 82.407s3.248 21.641 4.778 24.922c1.53 3.281 12.611 13.124 12.611 13.124s20.802-8.573 21.625-12.912c.823-4.34-39.014-25.134-39.014-25.134z" data-color="5"></path>
        <path fill="#8F614D" d="M102.012 79.159s5.649 15.882 6.633 21.395c1.493 8.366 11.67 16.25 11.67 16.25l11.12-2.321c10.93-2.281 18.441-12.345 17.551-23.482-1.212-15.162-3.66-34.072-8.413-37.062 0 0-4.292-5.364-10.528 2.066-6.236 7.43-16.226 19.317-28.033 23.154z" data-color="3"></path>
        <path fill="#F99E26" d="M109.545 75.574c-2.409 1.497-4.927 2.738-7.534 3.585 0 0 5.649 15.882 6.633 21.395 1.493 8.366 11.67 16.25 11.67 16.25l11.12-2.321a22.133 22.133 0 004.148-1.304c-3.945-2.538-8.978-5.916-11.972-8.46-4.346-3.693-11.366-21.847-14.065-29.145z" data-color="2"></path>
        <path fill="#2E88BF" d="M133.336 99.821c-5.861-4.836-13.877-22.011-16.956-29.34a58.644 58.644 0 01-4.827 3.772c2.844 6.563 10.974 24.332 18.016 30.142 3.159 2.606 7.157 4.497 10.987 5.853a22.206 22.206 0 004.503-4.767c-4.004-1.189-8.494-2.996-11.723-5.66z" data-color="4"></path>
        <path fill="#2E88BF" d="M120.019 43.534s-8.616.153-10.942 1.423c0 0 3.302 5.219 3.408 9.241.106 4.022-.282 9.455-.282 9.455s16.769-13.345 23.639-9.882c-.001 0-2.554-9.754-15.823-10.237z" data-color="4"></path>
        <path fill="#2E88BF" d="M111.383 45.201s9.457-2.399 13.934 0c4.478 2.399 6.276 4.586 6.276 4.586l-15.719 7.303c0 .001-3.868-11.083-4.491-11.889z" data-color="4"></path>
        <path opacity=".3" d="M111.383 45.201s9.457-2.399 13.934 0c4.478 2.399 6.276 4.586 6.276 4.586l-15.719 7.303c0 .001-3.868-11.083-4.491-11.889z"></path>
        <path fill="#F99E26" d="M128.266 35.036s4.692-6.522 2.137-9.736c-2.534-3.188-10.983 4.077-11.315 4.094-.398.021 3.942 4.091 6.181 5.324.875.483 2.851 1.319 2.997.318z" data-color="2"></path>
        <path fill="#2E88BF" d="M130.328 31.285c-1.28-3.047-4.041-4.655-5.901-5.422-.659.357-1.307.752-1.912 1.146 1.222.336 5.92 1.921 6.688 6.544.362-.63.773-1.414 1.125-2.268z" data-color="4"></path>
        <path opacity=".3" d="M128.266 35.036s4.692-6.522 2.137-9.736a2.116 2.116 0 00-.315-.313c-.174 1.066-.571 2.622-1.48 3.673-1.228 1.421-4.59 3.597-5.771 4.34.876.705 1.751 1.343 2.431 1.718.876.483 2.852 1.319 2.998.318z"></path>
        <path fill="#F99E26" d="M130.035 44.835s1.643-.385 2.195-2.889c.552-2.503-.302-6.597-5.602-11.23-5.3-4.632-12.53-7.555-15.074-5.618-1.26.959-2.334 1.626-1.69 3.75.41 1.356 20.171 15.987 20.171 15.987z" data-color="2"></path>
        <path fill="#F99E26" d="M111.426 26.234c4.599-.851 14.561 5.46 18.983 14 2.656 5.129-1.555 4.866-1.555 4.866s-3.994.852-10.912-4.935c-8.022-6.711-10.38-13.217-6.516-13.931z" data-color="2"></path>
        <path opacity=".3" d="M111.426 26.234c4.599-.851 14.561 5.46 18.983 14 2.656 5.129-1.555 4.866-1.555 4.866s-3.994.852-10.912-4.935c-8.022-6.711-10.38-13.217-6.516-13.931z"></path>
        <path fill="#311E69" d="M115.669 37.797s-.336-2.63.112-3.693c.448-1.063.158-4.287 4.405-2.198 2.517 1.238 2.941 3.064 3.413 4.458.803 2.37.213 4.147-.825 4.43-1.648.449-7.105-2.997-7.105-2.997z" data-color="5"></path>
        <path fill="#FF6161" d="M121.917 37.846l2.157 7.179c-.023 1.032-5.656 3.718-7.242 2.363-.464-.397-.301-1.38.181-2.437l2.848-5.748 2.056-1.357z" data-color="1"></path>
        <path opacity=".5" d="M117.384 44.202l1.524-3.076 2.527.747s-2.102 1.836-4.051 2.329z"></path>
        <path fill="#FF6161" d="M120.356 34.968l1.912 3.846a2.62 2.62 0 01-1.382 3.383c-1.04.451-1.741.555-3.15.59-1.174.029-1.928-.992-2.149-2.506-.287-1.963.007-3.853.22-4.856.487-2.284 3.119-2.872 4.549-.457z" data-color="1"></path>
        <path fill="#FFFFFF" d="M118.203 38.645s-.965.238-2.328.069c0 0 .03.794.631.95.664.172 1.374.042 1.697-1.019z" data-color="6"></path>
        <path opacity=".2" d="M116.915 41.635c1.253-.448 3.25.836 4.787-1.122.344-.438.482-1.273.525-1.783l.042.084a2.62 2.62 0 01-1.382 3.383c-1.04.451-1.741.555-3.15.59-.598.015-1.087-.244-1.452-.701-.073-.089.248-.314.63-.451z"></path>
        <path fill="#311E69" d="M115.647 32.417c-.62.598-.296 2.084.473 2.471.864.434 2.613.751 3.21.97.871.32.632 1.415 1.242 1.458.61.043.721-.835.784-1.323.064-.488.524-2.775-1.381-3.689-1.224-.588-2.949-1.216-4.328.113z" data-color="5"></path>
        <path fill="#FF6161" d="M120.762 37.098a3.703 3.703 0 00-.043-.794c-.073-.501-.065-1.262.731-1.004 1.157.374 1.398 3.063.191 3.446-.896.285-.924-.979-.879-1.648z" data-color="1"></path>
        <path fill="#311E69" d="M116.628 38.001s-.875-.569-1.332.584c-.457 1.153-.283 2.582 0 2.84s.678-2.341 1.28-2.625c0 0 .573-.233 1.084.439.51.672.778 2.052 1.077 2.042.299-.01.66-2.524-.286-3.143-.945-.62-1.823-.137-1.823-.137z" data-color="5"></path>
        <path opacity=".2" d="M140.712 64.022s-9.822 13.443-15.178 20.581c-5.356 7.138-16.693 11.295-12.462 17.645 4.231 6.35 18.635 12.566 21.869 10.517 3.234-2.05 11.473-11.63 11.373-18.2-.102-6.57-1.794-26.434-5.602-30.543z"></path>
        <path opacity=".2" d="M55.268 35.339c-.222-.948-1.018-1.67-1.887-2.198.141-.179.178-.359.025-.526-.631-.682-3.8-2.443-4.144-1.197-.343 1.246-.638 3.448-.726 4.481-.123 1.439 1.533 2.536 2.247 1.614.533-.689.659-2.18.69-2.892.268.337.527.712.724 1.095.576 1.118.63 2.274 1.727 2.353.72.051 1.606-1.615 1.344-2.73z"></path>
    </g>
</svg>