<svg id="Livello_1" data-name="Livello 1" xmlns="http://www.w3.org/2000/svg" viewBox="0 0 114.83 127.54"><defs><style>.cls-1{fill:#2d3b5d;}</style></defs><path class="cls-1" d="M63.33,16.13c2.44.33,4.9.54,7.31,1,5,1,9.49,2.87,13,6.66a19.19,19.19,0,0,1,4,6.49,1.74,1.74,0,0,0,1.11,1.1,19.57,19.57,0,0,1,11.28,10.94,21.57,21.57,0,0,1,1.46,10.35,45.38,45.38,0,0,1-4.64,16.9A28.71,28.71,0,0,1,80.85,83.83a46.29,46.29,0,0,1-16.07,2.56c-2.44,0-4.87,0-7.31,0A1.25,1.25,0,0,0,56,87.6L53.66,103c-.73,4.71-1.46,9.41-2.2,14.22H32.11c-4.37,0-6.8-2.83-6.13-7.16.27-1.78.54-3.57.82-5.47H21.46c-.88,0-1.77,0-2.66,0A5.62,5.62,0,0,1,13.27,98c1.09-7.24,2.22-14.48,3.34-21.72q2-13.11,4.06-26.2c1.41-9.13,2.79-18.26,4.22-27.38a7.17,7.17,0,0,1,5.72-6.39,1.54,1.54,0,0,0,.34-.17ZM19.64,98.18H33.42l.1-.54c1.23-8,2.48-15.9,3.68-23.86a7.3,7.3,0,0,1,7.46-6.34c2.53.06,5.07,0,7.6,0a43.08,43.08,0,0,0,10.55-1.2c5.48-1.42,10.18-4.1,13.57-8.73a33.41,33.41,0,0,0,6.25-20.37,13.4,13.4,0,0,0-9-12.6,37.44,37.44,0,0,0-13.46-2.09c-9.18,0-18.36,0-27.54,0-1,0-1.41.31-1.55,1.31-.64,4.39-1.34,8.77-2,13.15L24.84,64.37Q22.71,78.2,20.57,92C20.26,94.07,20,96.11,19.64,98.18ZM89,38.57A45.61,45.61,0,0,1,84.24,57a28.56,28.56,0,0,1-11,11.81A35.33,35.33,0,0,1,57,73.54c-4.07.24-8.16.18-12.23.22a1.19,1.19,0,0,0-1.39,1.15q-1.57,10.38-3.18,20.76c-.46,2.94-.93,5.89-1.4,8.94H33.19l-.94,6.23H46c0-.23.1-.42.13-.61,1.22-7.89,2.42-15.78,3.66-23.67a7.22,7.22,0,0,1,7.63-6.48c2.46,0,4.94.12,7.39,0a78.36,78.36,0,0,0,9.69-1,23.31,23.31,0,0,0,13-7.1A28.22,28.22,0,0,0,94,59.55c1-3.86,1.8-7.77,1.14-11.79A13,13,0,0,0,89,38.57Z"/></svg>