<svg id="Livello_1" data-name="Livello 1" xmlns="http://www.w3.org/2000/svg" viewBox="0 0 114.83 127.54"><defs><style>.cls-1{fill:#2d3b5d;}</style></defs><path class="cls-1" d="M18,30.28a2.78,2.78,0,0,1,3-1.77c2.57.07,5.14,0,7.71,0a5.62,5.62,0,0,1,5.92,4.57c.81,3,1.63,6,2.4,9,.15.54.36.73.93.73q17,0,33.92.13c6.73,0,13.46,0,20.19.1a4.6,4.6,0,0,1,4.71,5.81Q94,61,91.13,73.16a5.68,5.68,0,0,1-5.62,4.41c-1,0-2,0-2.93,0l-41,0a9.66,9.66,0,0,0-1.08,0,2.57,2.57,0,0,0,0,5.11c.36,0,.72,0,1.08,0H86.76c1.83,0,2.92,1,2.74,2.63a2.38,2.38,0,0,1-1.45,1.88c1.52,4.18.78,7.76-3,10.38A7.9,7.9,0,0,1,76,97.38c-3.06-2.23-3.91-5.34-2.69-10H58.89c1.44,4.1.66,7.65-3,10.16a7.46,7.46,0,0,1-8.84,0c-3.64-2.49-4.41-6-3-10.22-1.11,0-2.15,0-3.19,0a7.21,7.21,0,0,1-1-14.37l.58-.08c-.06-.3-.11-.57-.18-.83L30.12,34.33c-.27-1-.45-1.16-1.49-1.16-2.57,0-5.14,0-7.71,0a2.74,2.74,0,0,1-3-1.82Zm20.5,17.21,2.81,10.45h8.9a1.51,1.51,0,0,0,0-.34c-.42-3.23-.83-6.46-1.29-9.68,0-.16-.37-.38-.57-.39-.9-.05-1.8,0-2.69,0Zm30,.13V57.91a1.48,1.48,0,0,0,.26.07h8c.45,0,.55-.21.6-.6.29-2.31.61-4.62.91-6.93.12-.93.22-1.85.34-2.84ZM54.94,57.94h8.78V47.6H53.56Zm27,0h8l2.38-10.3c-2.94,0-5.79,0-8.63,0-.16,0-.43.37-.46.59-.28,1.8-.51,3.61-.75,5.41C82.26,55.08,82.09,56.47,81.9,58ZM42.52,62.61c.89,3.26,1.72,6.4,2.63,9.52a1.28,1.28,0,0,0,1,.75c2,.07,4,0,6.07,0a2.25,2.25,0,0,0,0-.43c-.41-3.15-.82-6.3-1.26-9.45a.65.65,0,0,0-.48-.41C47.87,62.61,45.28,62.61,42.52,62.61Zm25.93,0V73c2.17,0,4.27,0,6.37,0,.17,0,.45-.35.48-.57.28-1.82.51-3.65.75-5.48.19-1.39.35-2.78.53-4.22ZM63.72,72.91V62.66H55.56l1.37,10.25ZM81.27,62.65c-.45,3.42-.9,6.82-1.36,10.28,2,0,3.82,0,5.69,0,.69,0,1-.54,1.12-1.17.51-2.28,1-4.55,1.56-6.82.17-.74.34-1.48.52-2.28ZM51.44,94.29a3.46,3.46,0,0,0,3.5-3.45,3.47,3.47,0,0,0-6.93,0A3.43,3.43,0,0,0,51.44,94.29Zm29.25,0a3.47,3.47,0,1,0-3.44-3.49A3.45,3.45,0,0,0,80.69,94.29Z"/></svg>