<svg id="Livello_1" data-name="Livello 1" xmlns="http://www.w3.org/2000/svg" viewBox="0 0 114.83 127.54"><defs><style>.cls-1{fill:#2d3b5d;}</style></defs><path class="cls-1" d="M56.11,59.44h2.72c-.14-.77-.26-1.47-.39-2.16a5.83,5.83,0,0,1,4.33-7Q78.7,46.58,94.66,43a5.79,5.79,0,0,1,6.49,3.3c.59,1.25,1.12,2.53,1.62,3.82.22.58.52.7,1.1.54A23.37,23.37,0,0,1,106.6,50a1.77,1.77,0,0,1,2.23,1.85c0,.26,0,.52,0,.79v52.65c0,2.09-.26,2.43-2.3,2.9l-40,9.26a8,8,0,0,1-1.55.16c-3.37,0-6.74-.12-10.1,0a44,44,0,0,1-12.3-1.46c-11.48-2.75-23-5.36-34.5-8-1.72-.4-2.12-.86-2.12-2.59V52.37c0-2,.86-2.7,2.84-2.26,1,.22,2.18.82,2.89.46s.91-1.69,1.33-2.6c.27-.61.51-1.24.81-1.84A5.79,5.79,0,0,1,20.33,43q15.9,3.62,31.78,7.32a5.77,5.77,0,0,1,4.45,6.48C56.46,57.63,56.28,58.48,56.11,59.44Zm-8.87,54.11V62.71L9.64,54v50.83Zm57.93-8.71V54L67.6,62.73v50.83ZM15.44,51.57a4.65,4.65,0,0,0,.62.23c10.9,2.54,21.81,5.09,32.73,7.56a16.91,16.91,0,0,0,3.63,0c.18-.86.36-1.66.5-2.47.32-1.91-.27-2.83-2.14-3.26Q35.35,50.09,19.9,46.55a2.32,2.32,0,0,0-3,1.52C16.43,49.2,16,50.34,15.44,51.57Zm84,.06a2.92,2.92,0,0,0-.06-.39c-.42-1-.83-2-1.27-3-.71-1.63-1.54-2-3.29-1.64L75.81,51,64.13,53.66c-1.55.36-2.35,1.28-2.2,2.64a18.26,18.26,0,0,0,.52,2.63.9.9,0,0,0,.65.54,16.09,16.09,0,0,0,3.34-.2c7.91-1.78,15.8-3.63,23.69-5.46ZM63.88,82.82H51V95.74H63.88ZM51,63.12v7.16H63.84V63.12ZM63.84,114v-5.76H51V114Zm0-34.92V74H51v5ZM50.94,104.49H63.87v-5H50.94Z"/><path class="cls-1" d="M39.39,30.67H35c-1.9,0-2.5-.59-2.51-2.47q0-5.73,0-11.45c0-1.75.62-2.37,2.36-2.38l4.15,0a1.35,1.35,0,0,0,.35-.14c0-.72,0-1.49,0-2.27,0-1.43.65-2.08,2-2.08h34.8c1.47,0,2.08.65,2.1,2.15,0,.74,0,1.48,0,2.36h4.45c1.81,0,2.41.61,2.41,2.44,0,3.82,0,7.63,0,11.45,0,1.8-.62,2.4-2.46,2.41h-4.4V41.62c0,2.33-.44,2.78-2.72,2.78H42.05c-2.17,0-2.66-.48-2.66-2.61,0-3.26,0-6.51,0-9.77ZM74.7,13.5H43.08V40.74H74.7ZM36.18,18v9h3.14V18Zm45.37,0H78.43v9h3.12Z"/><path class="cls-1" d="M32.89,72.74l-6.38-1.41L13.73,68.45c-1.5-.34-2.19-1.4-1.68-2.56.4-.9,1.24-1.23,2.48-1l10.16,2.29c2.91.65,5.83,1.28,8.74,2A1.78,1.78,0,0,1,35,71.28C34.87,72.22,34.12,72.79,32.89,72.74Z"/><path class="cls-1" d="M14.1,58.12l4.67,1.1c3.23.75,6.47,1.49,9.7,2.25,1.34.31,2,1.21,1.72,2.27A1.87,1.87,0,0,1,27.69,65q-7-1.62-14-3.26a1.8,1.8,0,0,1-1.58-2.08A1.86,1.86,0,0,1,14.1,58.12Z"/><path class="cls-1" d="M69.62,87.61c0-3.59,0-7.18,0-10.77,0-2.62,1-3.86,3.62-4.26q12.9-2,25.81-4a3.53,3.53,0,0,1,4,2.82,7.91,7.91,0,0,1,.11,1.46V94.14c0,2.82-1.07,4-3.84,4.41q-12.58,1.94-25.15,3.93c-2.62.42-4.49-1.07-4.51-3.75C69.59,95,69.62,91.32,69.62,87.61ZM73.29,99l26.17-4.11V72.14c-.56.08-1,.13-1.5.21-7.87,1.24-15.73,2.5-23.6,3.69-.88.14-1.19.37-1.18,1.29,0,6.85,0,13.7,0,20.55C73.23,98.2,73.26,98.53,73.29,99Z"/><path class="cls-1" d="M58.31,35.67a10.16,10.16,0,0,1-7.13-3.4,1.79,1.79,0,0,1-.13-2.61,1.77,1.77,0,0,1,2.67.11A6.6,6.6,0,0,0,64,29.41a1.72,1.72,0,0,1,2.58-.27,1.79,1.79,0,0,1,.1,2.6A10.55,10.55,0,0,1,58.31,35.67Z"/><path class="cls-1" d="M53.38,22.48c0,.67,0,1.34,0,2a1.75,1.75,0,0,1-1.74,1.71,1.65,1.65,0,0,1-1.77-1.54,29,29,0,0,1,0-4.37,1.77,1.77,0,0,1,3.52.17C53.42,21.13,53.39,21.8,53.38,22.48Z"/><path class="cls-1" d="M67.93,22.49c0,.63,0,1.27,0,1.9A1.84,1.84,0,0,1,66,26.2a1.78,1.78,0,0,1-1.68-1.88c0-1.24,0-2.47,0-3.7a1.72,1.72,0,0,1,1.7-1.84,1.75,1.75,0,0,1,1.87,1.8C68,21.21,67.93,21.85,67.93,22.49Z"/><path class="cls-1" d="M85.59,88.84,81,89.32c.08.75.16,1.44.22,2.13a1.91,1.91,0,0,1-1.57,2.32c-1,.14-1.85-.64-2-1.92-.28-2.48-.58-5-.83-7.46a6,6,0,1,1,11.87-1.13c.23,2.42.51,4.83.78,7.24.14,1.29-.42,2.2-1.49,2.38s-1.86-.55-2.05-1.84c-.06-.37-.1-.74-.15-1.11S85.65,89.28,85.59,88.84Zm-.37-3.6c-.2-1.49,0-3-1.58-3.77a2.17,2.17,0,0,0-2.49.37c-1.26,1.12-.77,2.49-.53,3.9Z"/><path class="cls-1" d="M96.48,89.88c0,1.33-.55,2.1-1.57,2.21a1.77,1.77,0,0,1-2-1.77q-.66-5.83-1.27-11.68a1.79,1.79,0,0,1,1.51-2.12,1.69,1.69,0,0,1,2,1.6C95.63,82.08,96.05,86.05,96.48,89.88Z"/></svg>