<svg id="Livello_1" data-name="Livello 1" xmlns="http://www.w3.org/2000/svg" viewBox="0 0 114.83 127.54"><defs><style>.cls-1{fill:#004ebf;}</style></defs><path class="cls-1" d="M58,111.78A45.81,45.81,0,1,1,103.79,66,45.75,45.75,0,0,1,58,111.78ZM39.3,88.32c-.06,4,3.59,6.17,6.8,4.45,3.69-2,7.35-4,11-6a1.63,1.63,0,0,1,1.85,0q5.4,3.09,10.85,6.1a4.32,4.32,0,0,0,4.94-.28,4.38,4.38,0,0,0,1.81-4.52c-.72-4.41-1.41-8.83-2.14-13.24a1.64,1.64,0,0,1,.49-1.61c3-3,6-6.08,8.94-9.13a4.55,4.55,0,0,0,1.25-4.91,4.48,4.48,0,0,0-3.9-3.08c-4-.62-8.05-1.29-12.08-1.86a1.6,1.6,0,0,1-1.41-1c-1.73-3.84-3.51-7.67-5.25-11.51-.87-1.93-2.23-3.17-4.42-3.16s-3.47,1.21-4.34,3.11c-1.79,3.89-3.66,7.75-5.47,11.64a1.4,1.4,0,0,1-1.24,1q-5.58.81-11.13,1.73a9.54,9.54,0,0,0-3.06.86c-2.64,1.48-3,5-.72,7.25,3,3,6,6,9,9.1a1.79,1.79,0,0,1,.52,1.25c-.22,1.81-.57,3.6-.86,5.4C40.2,82.76,39.72,85.73,39.3,88.32Z"/></svg>