<svg id="Livello_1" data-name="Livello 1" xmlns="http://www.w3.org/2000/svg" viewBox="0 0 114.83 127.54"><defs><style>.cls-1{fill:#2d3b5d;}</style></defs><path class="cls-1" d="M59.49,114.48c-.14-.07-.29-.16-.44-.22A5,5,0,0,1,56.1,107,28.64,28.64,0,0,1,72.46,92.51a29.22,29.22,0,0,1,35.28,13.29c2.05,3.61,1.3,7.39-3,8.68Zm22.64-3.33v0h21.09c2.24,0,3-1.16,1.85-3.12-5-8.87-12.59-13.77-22.85-13.77S64.39,99.13,59.34,108c-1.13,2-.38,3.17,1.91,3.17Z"/><path class="cls-1" d="M80.56,58.65V46.07c0-.38,0-.76,0-1.13a1.65,1.65,0,0,1,3.3-.07c.06.68,0,1.37,0,2.06V58.66c.51.11,1,.2,1.44.31A13.92,13.92,0,1,1,72,82a2.15,2.15,0,0,0-1.77-.77c-6.41,0-12.82,0-19.23,0H49.83v9.6c1.53,0,3,0,4.53,0s2.16,1,1.81,2.14a1.77,1.77,0,0,1-1.94,1.22c-2,0-4.06,0-6.09,0-4.93,0-9.86,0-14.78,0a4.46,4.46,0,0,1-.73,0,1.66,1.66,0,0,1-1.56-1.73,1.61,1.61,0,0,1,1.61-1.58c1.17-.06,2.34,0,3.51,0h1.3V81.2H8.91c-3.4,0-5.49-2-5.49-5.43q0-25.32,0-50.64a5,5,0,0,1,5.29-5.22c4.51,0,9,0,13.54,0a1.7,1.7,0,0,0,1.86-1.12,8.81,8.81,0,1,1-.84,5.42c-.05-.3-.13-.59-.21-1-1.48,0-2.93,0-4.37,0-3.27,0-6.55,0-9.82,0-1.56,0-2.13.58-2.13,2.12V63.51c0,.27,0,.54.06.91H8q30.9,0,61.81,0a2,2,0,0,0,1.75-.8,13.5,13.5,0,0,1,8.21-4.79C80,58.81,80.22,58.73,80.56,58.65ZM69.07,67.83H6.77v7.5c0,1.94.5,2.44,2.44,2.44h58.9c.36,0,.71,0,1.15-.07A14.69,14.69,0,0,1,69.07,67.83ZM82.18,83.11A10.57,10.57,0,1,0,71.66,72.5,10.53,10.53,0,0,0,82.18,83.11ZM32,17.27a5.48,5.48,0,0,0-5.46,5.56A5.52,5.52,0,1,0,32,17.27ZM46.39,90.73V81.27H41v9.46Z"/><path class="cls-1" d="M41.39,45.64V50c0,1.55,0,3.1,0,4.65a3.88,3.88,0,0,1-4.05,4q-9,0-18.09,0a3.86,3.86,0,0,1-3.95-4.58c.59-3.88,1.22-7.75,2-11.6A9.7,9.7,0,0,1,27,34.51q8.32,0,16.64,0a2.15,2.15,0,0,0,1.73-.69c.72-.79,1.52-1.5,2.29-2.24,2.45-2.34,3.49-2.66,6.93-2l1.25-3.42c.44-1.2.88-2.39,1.33-3.58s1.27-1.72,2.25-1.36,1.33,1.28.89,2.48c-.93,2.55-1.9,5.09-2.79,7.65a2.15,2.15,0,0,0,0,1.35,5.49,5.49,0,0,1-1.23,6c-1.59,1.62-3.25,3.17-4.93,4.71a8.4,8.4,0,0,1-5.84,2.23ZM26,55.18a2.18,2.18,0,0,0,.41.12H37.1c.82,0,.95-.45.94-1.13q0-4.76,0-9.51c0-1.88.48-2.35,2.4-2.36h5a5.58,5.58,0,0,0,3.93-1.54c1.48-1.4,3-2.8,4.4-4.23a2.17,2.17,0,0,0,.19-3.29,2.22,2.22,0,0,0-3.3.13c-1.2,1.13-2.42,2.25-3.56,3.44a3.25,3.25,0,0,1-2.57,1q-8.62-.06-17.25,0a6.42,6.42,0,0,0-6.7,5.27c-.72,3.72-1.29,7.46-1.94,11.19-.11.66.16,1,.82,1,1,0,2,0,3.06,0,.08-.38.16-.71.22-1,.46-2.68.89-5.36,1.39-8A1.61,1.61,0,0,1,26,44.84a1.69,1.69,0,0,1,1.31,2c-.12.82-.27,1.63-.41,2.45C26.6,51.27,26.28,53.22,26,55.18Z"/><path class="cls-1" d="M67.58,8.65H85.67c3.47,0,5.51,2,5.51,5.52q0,10.44,0,20.87c0,3.45-2,5.47-5.44,5.47H62.08a5.93,5.93,0,0,1-.73,0,1.53,1.53,0,0,1-1.47-1.57,1.55,1.55,0,0,1,1.34-1.7,4.38,4.38,0,0,1,1,0H85.5c1.83,0,2.34-.51,2.34-2.31q0-10.29,0-20.56c0-1.81-.52-2.34-2.33-2.34H49.65c-1.81,0-2.35.54-2.36,2.32V26.6a7.22,7.22,0,0,1,0,.93,1.7,1.7,0,0,1-1.67,1.52A1.64,1.64,0,0,1,44,27.48c0-.65,0-1.31,0-2,0-3.86,0-7.72,0-11.57a5,5,0,0,1,5.32-5.3Z"/><path class="cls-1" d="M71.25,16.43c2.23,0,4.47,0,6.71,0,1.34,0,2,.59,2.05,1.64s-.72,1.7-2,1.7H64.36c-1.29,0-2-.66-2-1.72s.71-1.61,2-1.62C66.63,16.42,68.94,16.44,71.25,16.43Z"/><path class="cls-1" d="M72.62,26.24c-1.86,0-3.71,0-5.57,0-1.21,0-2-.64-2-1.65s.75-1.66,1.94-1.67q5.52,0,11,0c1.22,0,1.92.64,1.93,1.66s-.69,1.65-1.92,1.66C76.26,26.25,74.44,26.24,72.62,26.24Z"/><path class="cls-1" d="M74.16,32.78c-1.27,0-2.54,0-3.81,0s-2-.65-2-1.7.71-1.66,2-1.67c2.54,0,5.09,0,7.63,0,1.31,0,2,.63,2,1.68s-.73,1.66-2,1.68Z"/><path class="cls-1" d="M43.69,74.43c-.79,0-1.58,0-2.37,0a1.64,1.64,0,0,1-1.65-1.63,1.66,1.66,0,0,1,1.63-1.67c1.58-.05,3.16-.05,4.74,0a1.65,1.65,0,1,1-.08,3.3C45.21,74.47,44.45,74.43,43.69,74.43Z"/></svg>