<svg id="Livello_1" data-name="Livello 1" xmlns="http://www.w3.org/2000/svg" viewBox="0 0 114.83 127.54"><defs><style>.cls-1{fill:#a21c26;}</style></defs><path class="cls-1" d="M80.73,78.78,65.83,63.67,80.57,48.73a6.2,6.2,0,0,0,1.71-4.08,5.73,5.73,0,0,0-1.72-4.35,5.9,5.9,0,0,0-4.33-1.75A5.74,5.74,0,0,0,72,40.45L57.47,55.21,42.83,40.32l-.08-.08a6.16,6.16,0,0,0-4-1.71,5.73,5.73,0,0,0-4.33,1.72,5.9,5.9,0,0,0-.06,8.43l14.79,15L34,79a6.3,6.3,0,0,0-1.7,3.91,5.42,5.42,0,0,0,1.77,4.48A5.76,5.76,0,0,0,38.21,89h.24a6.24,6.24,0,0,0,4.12-1.72l14.9-15.11L72.4,87.28a5.89,5.89,0,0,0,8.33,0,5.63,5.63,0,0,0,1.79-4.41A5.88,5.88,0,0,0,80.73,78.78Z"/></svg>