<svg id="Livello_1" data-name="Livello 1" xmlns="http://www.w3.org/2000/svg" viewBox="0 0 114.83 127.54"><defs><style>.cls-1{fill:#004ebf;}.cls-2{fill:#2d3b5d;}</style></defs><path class="cls-1" d="M59,57.94A19.43,19.43,0,1,1,78.4,38.53,19.41,19.41,0,0,1,59,57.94ZM51,48a1.94,1.94,0,0,0,2.88,1.89c1.57-.84,3.12-1.7,4.67-2.57a.68.68,0,0,1,.78,0q2.3,1.31,4.6,2.58a1.84,1.84,0,0,0,2.1-.11,1.86,1.86,0,0,0,.76-1.92c-.3-1.87-.59-3.75-.9-5.62a.68.68,0,0,1,.21-.68c1.27-1.28,2.52-2.58,3.79-3.87a1.94,1.94,0,0,0,.53-2.09,1.88,1.88,0,0,0-1.65-1.3c-1.71-.27-3.42-.55-5.13-.79a.68.68,0,0,1-.6-.45c-.73-1.63-1.49-3.25-2.22-4.88a2,2,0,0,0-3.72,0c-.76,1.65-1.55,3.29-2.32,4.94a.61.61,0,0,1-.53.4c-1.58.23-3.15.47-4.72.73a3.82,3.82,0,0,0-1.3.37,1.91,1.91,0,0,0-.3,3.07c1.26,1.29,2.54,2.57,3.8,3.86a.76.76,0,0,1,.22.53c-.09.77-.24,1.53-.36,2.29C51.42,45.63,51.22,46.89,51,48Z"/><path class="cls-2" d="M12.08,61.09a2.35,2.35,0,0,1,2.34-1.21c3,0,5.94.06,8.91,0A5.46,5.46,0,0,1,29,63.33h8.81a29.36,29.36,0,0,1,4.79.17A15.71,15.71,0,0,1,47.07,65c2.9,1.47,5.68,3.17,8.54,4.72a3.89,3.89,0,0,0,1.77.47c3.2,0,6.41.15,9.6,0,4.68-.25,8.29,3.08,7.84,8.08l2.82-1,13-4.49A7.4,7.4,0,0,1,95,72.5a6.44,6.44,0,0,1,4.92,5.81A6.59,6.59,0,0,1,96,84.9C91.41,87,86.78,89,82.16,91c-6.14,2.7-12.26,5.44-18.41,8.1a21.68,21.68,0,0,1-20.6-1.34c-2.8-1.65-5.59-3.34-8.37-5A14.46,14.46,0,0,0,29.36,91a.78.78,0,0,0-.64.34,5.33,5.33,0,0,1-5.15,2.88c-3.09,0-6.17,0-9.26,0A2.2,2.2,0,0,1,12.08,93ZM29.26,87.53A20.18,20.18,0,0,1,38.54,91c2.08,1.35,4.24,2.58,6.38,3.85A18.23,18.23,0,0,0,62.31,96c8.22-3.58,16.41-7.21,24.61-10.82,2.56-1.13,5.13-2.23,7.67-3.39a3.12,3.12,0,0,0,1.81-3.53,2.92,2.92,0,0,0-2.94-2.49,5.26,5.26,0,0,0-1.75.32c-6.54,2.23-13.09,4.42-19.58,6.78a18.17,18.17,0,0,1-6.6,1.07c-4.78-.06-9.55,0-14.32,0a6.14,6.14,0,0,1-.86,0,1.69,1.69,0,0,1-1.49-1.53A1.62,1.62,0,0,1,50,80.63a3.93,3.93,0,0,1,1.18-.14H67.88a3.43,3.43,0,1,0,0-6.85c-3.52,0-7,0-10.55,0a6.64,6.64,0,0,1-3.43-.9c-2.75-1.56-5.53-3.09-8.28-4.67a9.7,9.7,0,0,0-5-1.31c-3.51,0-7,0-10.54,0-.28,0-.55,0-.86,0ZM15.55,90.77H23.7c1.48,0,2.1-.61,2.1-2.07V65.38c0-1.4-.64-2-2.05-2H16.12a3.7,3.7,0,0,0-.57.07Z"/><path class="cls-2" d="M20.65,70.18a1.71,1.71,0,0,1-1.71-1.66,1.71,1.71,0,1,1,3.42-.07A1.7,1.7,0,0,1,20.65,70.18Z"/></svg>