<svg id="Livello_1" data-name="Livello 1" xmlns="http://www.w3.org/2000/svg" viewBox="0 0 114.83 127.54"><defs><style>.cls-1{fill:#2d3b5d;}</style></defs><path class="cls-1" d="M58.18,24.25a4.53,4.53,0,0,1,3.43,3.2,7.48,7.48,0,0,1,.18,1.83q0,20.13,0,40.26v1.15l.76-.73,9.27-9.27a4.24,4.24,0,0,1,4.33-1.14,4.1,4.1,0,0,1,3.07,3.23,4.34,4.34,0,0,1-1.35,4.28l-9.76,9.76c-2.42,2.42-4.83,4.84-7.26,7.25-2.2,2.2-4.7,2.2-6.89,0q-8.49-8.49-17-17a4.42,4.42,0,0,1-.45-6.23A4.37,4.37,0,0,1,43,60.74c3.09,3.06,6.15,6.15,9.23,9.22.19.19.4.38.76.72V29.12a4.39,4.39,0,0,1,3.48-4.78.6.6,0,0,0,.13-.09Z"/><path class="cls-1" d="M17.91,80.42c.08-.18.17-.35.24-.54a4.39,4.39,0,0,1,8.53,1.37c0,1.41,0,2.83,0,4.24a8.72,8.72,0,0,0,9,9q21.77,0,43.51,0a8.72,8.72,0,0,0,9-9c0-1.36,0-2.72,0-4.08a4.39,4.39,0,1,1,8.77,0,37.85,37.85,0,0,1-.44,8.3,17.48,17.48,0,0,1-16.63,13.58q-22.41.09-44.81,0a17.45,17.45,0,0,1-17-15.36c0-.17-.1-.34-.14-.51Z"/></svg>