<svg id="Livello_1" data-name="Livello 1" xmlns="http://www.w3.org/2000/svg" viewBox="0 0 114.83 127.54"><defs><style>.cls-1{fill:#2d3b5d;}</style></defs><path class="cls-1" d="M89.31,36.87V95a2.57,2.57,0,0,1-2.43,1.62q-28.42,0-56.84,0a2.2,2.2,0,0,1-2.4-2.41c0-1.87,0-3.75,0-5.62v-.73H16.87a2.22,2.22,0,0,1-2.24-1.43,2.16,2.16,0,0,1,.7-2.5,26,26,0,0,0,4.88-5.88,51.17,51.17,0,0,0,7.4-26.3c.11-4.67,0-9.35,0-14a2.22,2.22,0,0,1,2.48-2.47H40.94c0-.71,0-1.31,0-1.92a2.2,2.2,0,1,1,4.38,0v1.91h11V33.3a2.2,2.2,0,1,1,4.39,0v1.93h11.1c0-.72,0-1.37,0-2a2.19,2.19,0,1,1,4.38,0c0,.67,0,1.35,0,2.08H77c3.11,0,6.23.05,9.35,0A2.78,2.78,0,0,1,89.31,36.87ZM85,52.84H32C31.48,64,28.59,74.37,21.7,83.49h.58q25.14,0,50.27,0a1.55,1.55,0,0,0,1-.44,32.13,32.13,0,0,0,4.92-6.6,48.34,48.34,0,0,0,5.85-17.38C84.61,57,84.75,55,85,52.84ZM32.05,48.37H84.89V39.69H76.16v1.93a2.2,2.2,0,1,1-4.39,0V39.71H60.67c0,.72,0,1.37,0,2a2.19,2.19,0,1,1-4.38,0c0-.68,0-1.35,0-2h-11c0,.68,0,1.31,0,1.94a2.2,2.2,0,1,1-4.38,0c0-.65,0-1.29,0-1.92H32.05Zm52.85,25-.42.86a41.91,41.91,0,0,1-8.55,12.62,3.41,3.41,0,0,1-2.55,1q-20.23,0-40.48,0h-.84v4.34H84.9Z"/></svg>