<svg id="Livello_1" data-name="Livello 1" xmlns="http://www.w3.org/2000/svg" viewBox="0 0 114.83 127.54"><defs><style>.cls-1{fill:#6aa842;}</style></defs><path class="cls-1" d="M50.87,68.14,60,59.05Q70.33,48.7,80.67,38.34a7.57,7.57,0,0,1,12.76,2.88,7.36,7.36,0,0,1-1.54,7.32c-.22.25-.45.48-.69.72Q74,66.53,56.69,83.79a8,8,0,0,1-4.77,2.51,7.13,7.13,0,0,1-6-1.86c-2.14-2-4.19-4.14-6.27-6.22C35.81,74.41,32,70.6,28.18,66.76a7.58,7.58,0,0,1,3.87-12.82A7.33,7.33,0,0,1,39,56.1q5.72,5.7,11.41,11.42A5.84,5.84,0,0,1,50.87,68.14Z"/></svg>