<svg id="Livello_1" data-name="Livello 1" xmlns="http://www.w3.org/2000/svg" viewBox="0 0 114.83 127.54"><defs><style>.cls-1{fill:#2d3b5d;}</style></defs><path class="cls-1" d="M56.65,85.72a4.53,4.53,0,0,1-3.43-3.2A7.48,7.48,0,0,1,53,80.69q0-20.13,0-40.26V39.28l-.76.73L43,49.28a4.24,4.24,0,0,1-4.33,1.14,4.1,4.1,0,0,1-3.07-3.23A4.34,4.34,0,0,1,37,42.91l9.76-9.76c2.42-2.42,4.83-4.84,7.26-7.25,2.2-2.2,4.7-2.2,6.89,0q8.49,8.49,17,17a4.39,4.39,0,1,1-6,6.37c-3.09-3.06-6.15-6.15-9.23-9.22l-.76-.72V80.85a4.39,4.39,0,0,1-3.49,4.78l-.12.09Z"/><path class="cls-1" d="M17.91,80.42c.08-.18.17-.35.24-.54a4.39,4.39,0,0,1,8.53,1.37c0,1.41,0,2.83,0,4.24a8.72,8.72,0,0,0,9,9q21.77,0,43.51,0a8.72,8.72,0,0,0,9-9c0-1.36,0-2.72,0-4.08a4.39,4.39,0,1,1,8.77,0,37.85,37.85,0,0,1-.44,8.3,17.48,17.48,0,0,1-16.63,13.58q-22.41.09-44.81,0a17.45,17.45,0,0,1-17-15.36c0-.17-.1-.34-.14-.51Z"/></svg>