<svg id="Livello_1" data-name="Livello 1" xmlns="http://www.w3.org/2000/svg" viewBox="0 0 114.83 127.54"><defs><style>.cls-1{fill:#2d3b5d;}</style></defs><path class="cls-1" d="M54.49,12.09h5.82c1.66.21,3.33.36,5,.63A48.37,48.37,0,0,1,92.15,26.36c11.16,11.15,16.08,24.71,14.65,40.4a47.43,47.43,0,0,1-12.32,28,48.66,48.66,0,0,1-35.09,16.64,47.31,47.31,0,0,1-27.3-6.93C19.19,96.59,11.28,85.2,8.49,70.32c-.35-1.87-.52-3.76-.77-5.64V58.86L8,56.76A49.08,49.08,0,0,1,20.43,28.65,48.75,48.75,0,0,1,48.84,12.86C50.71,12.53,52.61,12.34,54.49,12.09Zm46.38,49.64a43.47,43.47,0,1,0-43.49,43.51A43.54,43.54,0,0,0,100.87,61.73Z"/><path class="cls-1" d="M47.19,52.45H59.87a5.76,5.76,0,0,1,1.25.07,3.09,3.09,0,0,1-.63,6.12c-2.78,0-5.56,0-8.34,0h-7v6.21h1.11c3.66,0,7.31,0,11,0a3.1,3.1,0,1,1-.06,6.2h-10a16.15,16.15,0,0,0,3.73,5.25c3.77,3.51,8.15,4.93,13.21,3.49a18.73,18.73,0,0,0,3.68-1.68c1.9-1,3.7-.73,4.65.87s.38,3.33-1.39,4.45c-8.85,5.6-20,3.52-26.6-5a24.29,24.29,0,0,1-3.77-6.62,1,1,0,0,0-1.19-.82c-1.26.06-2.53,0-3.79,0a3.1,3.1,0,1,1,0-6.2c1.06,0,2.12,0,3.13,0V58.66c-.91,0-1.9,0-2.9,0a3.12,3.12,0,1,1,0-6.21c1.17,0,2.34-.05,3.5,0a1.09,1.09,0,0,0,1.24-.87,24.06,24.06,0,0,1,8.44-11,19.44,19.44,0,0,1,22.21-.35,3.1,3.1,0,0,1,1.07,4.31,3.05,3.05,0,0,1-4.32,1,15,15,0,0,0-6-2.26A13.49,13.49,0,0,0,50.7,47.45,17,17,0,0,0,47.19,52.45Z"/></svg>