<svg id="Livello_1" data-name="Livello 1" xmlns="http://www.w3.org/2000/svg" viewBox="0 0 114.83 127.54"><defs><style>.cls-1{fill:#2d3b5d;}</style></defs><path class="cls-1" d="M52.93,26.74a4.51,4.51,0,0,1,3.43,3.2,7.38,7.38,0,0,1,.17,1.83q0,20.13,0,40.26v1.15c.36-.35.57-.53.76-.73q4.64-4.64,9.28-9.27A4.2,4.2,0,0,1,70.9,62,4.11,4.11,0,0,1,74,65.27a4.38,4.38,0,0,1-1.35,4.28q-4.89,4.86-9.76,9.76l-7.26,7.25c-2.21,2.2-4.7,2.2-6.9,0q-8.48-8.48-17-17a4.43,4.43,0,0,1-.46-6.23,4.37,4.37,0,0,1,6.5-.14c3.09,3.06,6.15,6.14,9.22,9.21.2.2.41.39.77.73V72q0-20.2,0-40.42a4.4,4.4,0,0,1,3.48-4.79.35.35,0,0,0,.13-.08Z"/><path class="cls-1" d="M12.65,82.91c.08-.18.18-.36.25-.54a4.39,4.39,0,0,1,8.53,1.36c0,1.42,0,2.83,0,4.25a8.72,8.72,0,0,0,9,9q21.75,0,43.5,0a8.73,8.73,0,0,0,9-9c0-1.36,0-2.72,0-4.09a4.43,4.43,0,0,1,4.4-4.44,4.38,4.38,0,0,1,4.37,4.45,37.85,37.85,0,0,1-.43,8.3,17.48,17.48,0,0,1-16.63,13.58q-22.41.09-44.82,0a17.46,17.46,0,0,1-17-15.36,3.07,3.07,0,0,0-.14-.52Z"/><path class="cls-1" d="M83.4,29.91H94.66a5.19,5.19,0,0,1,1.12.07,2.75,2.75,0,0,1-.56,5.44c-2.47,0-5,0-7.42,0H81.6V41h1c3.25,0,6.5,0,9.75,0a2.76,2.76,0,1,1,0,5.51H83.41a14.52,14.52,0,0,0,3.32,4.67c3.35,3.11,7.24,4.37,11.74,3.09a16.56,16.56,0,0,0,3.27-1.49c1.69-.91,3.29-.65,4.14.77s.33,3-1.25,4c-7.86,5-17.73,3.13-23.63-4.41a21.76,21.76,0,0,1-3.36-5.88.92.92,0,0,0-1-.73c-1.12.06-2.25,0-3.37,0a2.75,2.75,0,1,1,0-5.5c.94,0,1.88,0,2.78,0V35.43H73.44a2.77,2.77,0,1,1,0-5.52c1,0,2.07,0,3.1,0a1,1,0,0,0,1.11-.77,21.33,21.33,0,0,1,7.5-9.78,17.29,17.29,0,0,1,19.74-.3,2.77,2.77,0,0,1,.95,3.83,2.72,2.72,0,0,1-3.84.85,13.39,13.39,0,0,0-5.35-2,12,12,0,0,0-10.14,3.71A15.08,15.08,0,0,0,83.4,29.91Z"/></svg>