<svg id="Livello_1" data-name="Livello 1" xmlns="http://www.w3.org/2000/svg" viewBox="0 0 114.83 127.54"><defs><style>.cls-1{fill:#2d3b5d;}</style></defs><path class="cls-1" d="M54.93,21.5h5c1.13.13,2.26.25,3.38.4A42.65,42.65,0,0,1,99.38,56.77c.28,1.6.44,3.22.65,4.84v5a7,7,0,0,0-.14.8,40.64,40.64,0,0,1-2.37,11.17A42.62,42.62,0,0,1,15.57,56.11,41.89,41.89,0,0,1,27.13,34.17a41.56,41.56,0,0,1,23-12C51.69,21.88,53.32,21.71,54.93,21.5ZM85.84,88.6a37.55,37.55,0,1,0-58.53-47C14.65,58.58,19.94,79.06,29,88.5c2.76-9.73,8.89-16.44,18.29-20.24A17.93,17.93,0,1,1,68.85,39.61a17.18,17.18,0,0,1,6.36,11.76c.7,7-2,12.61-7.66,16.88A29.68,29.68,0,0,1,85.84,88.6ZM58.11,101.72c.9-.08,2.51-.15,4.1-.35a36.64,36.64,0,0,0,17.33-6.9c2.18-1.6,2.15-1.64,1.5-4.32a24.25,24.25,0,0,0-47.62,2.32,1,1,0,0,0,.35.8C40.66,98.82,48.56,101.6,58.11,101.72Zm-.66-35.38a12.94,12.94,0,1,0-13-12.86A13,13,0,0,0,57.45,66.34Z"/></svg>