<svg id="Livello_1" data-name="Livello 1" xmlns="http://www.w3.org/2000/svg" viewBox="0 0 114.83 127.54"><defs><style>.cls-1{fill:#2d3b5d;}</style></defs><path class="cls-1" d="M97.45,45c.2-.87.41-1.74.61-2.61a2.37,2.37,0,0,0-1.6-3.15,9.36,9.36,0,0,0-12.77,5.85,70,70,0,0,0-2.4,11.89c-.11.81-.31,1.12-.42,1.17s-.46,0-1.16-.37a18.86,18.86,0,0,1-6.66-6.46c-1.51-2.39-3-4.8-4.49-7.2l-4.34-7-6-9.58a6.51,6.51,0,1,0-11.17,6.66l7.6,12.62,2,3.29c-5.37-5.6-10.85-11.31-16.29-16.92a7.4,7.4,0,0,0-2.54-1.74A6.85,6.85,0,0,0,29.57,34a6.78,6.78,0,0,0,.72,8.69Q37.14,50,44,57.19l2,2.1Q37.8,53.41,29.59,47.51A6.26,6.26,0,0,0,22.68,47a6.2,6.2,0,0,0-3.41,5A6.85,6.85,0,0,0,22,58L37.64,69.93l-11.82-6a6.14,6.14,0,0,0-5.7,10.88l4.71,2.61c3,1.66,6,3.32,9,5,2.09,1.19,3.63,2,4.82,2.67,3.92,2.14,3.92,2.14,7.94,5.92l2.48,2.32A48.86,48.86,0,0,0,59.39,101a22.69,22.69,0,0,0,10.78,2.91,21.38,21.38,0,0,0,11-3.2c4.46-2.64,8.19-6.25,11.64-9.72a17,17,0,0,0,5-12.73,89.1,89.1,0,0,0-1.32-14,37.91,37.91,0,0,1-.39-13.08C96.44,49.14,97,47,97.45,45ZM48.76,77.11a3.32,3.32,0,0,0-.1-4.1,8.11,8.11,0,0,0-1.58-1.57l-15.4-11.8-7-5.34A2,2,0,0,1,23.93,52a1.8,1.8,0,0,1,1.93-1.17,2.91,2.91,0,0,1,1.2.54q6.89,4.91,13.77,9.84l8.89,6.35a8.29,8.29,0,0,0,1.78,1A3.59,3.59,0,0,0,56,63.65a7.59,7.59,0,0,0-1.3-1.83q-8-8.48-16.06-16.94l-4.94-5.21a2.19,2.19,0,0,1-.46-2.87,2.27,2.27,0,0,1,2.66-1.26,3.37,3.37,0,0,1,1.4.9q6.9,7.13,13.77,14.3l6.64,6.91A8.72,8.72,0,0,0,59.23,59a3.54,3.54,0,0,0,4.18-.1A3.44,3.44,0,0,0,64.64,55a9.31,9.31,0,0,0-.9-2q-4.45-7.42-8.93-14.84l-3.73-6.18a2,2,0,0,1,.16-2.65,1.79,1.79,0,0,1,2.49-.11,4.55,4.55,0,0,1,.91,1.1q3.8,6.07,7.59,12.18,3.47,5.58,7,11.17a22.5,22.5,0,0,0,8.49,8.15,7.53,7.53,0,0,0,2.67.87,4.94,4.94,0,0,0,5.28-4.26c.21-1,.36-2.09.51-3.11s.31-2.12.52-3.16a60.73,60.73,0,0,1,1.47-5.91,4.66,4.66,0,0,1,2.38-2.79A4.48,4.48,0,0,1,93.18,43c-.07.28-.14.56-.2.83-.32,1.26-.64,2.56-.92,3.85a44.08,44.08,0,0,0-.12,17.12,78.07,78.07,0,0,1,1.28,14,11.36,11.36,0,0,1-2.66,7.78A49.25,49.25,0,0,1,78.21,97.12c-5.71,3.29-11.52,3.08-17.76-.63a55.52,55.52,0,0,1-9.14-7.27L51,89c-.21-.19-.42-.38-.61-.59-3.66-4.11-8.38-6.68-13-9.16l-1.15-.63c-3.33-1.82-6.64-3.67-9.95-5.51l-3.84-2.14c-1.4-.78-1.13-1.69-.8-2.31A1.36,1.36,0,0,1,23,67.81a2.44,2.44,0,0,1,1.09.3l7.06,3.61,12.13,6.19a8,8,0,0,0,1.66.64A3.33,3.33,0,0,0,48.76,77.11Z"/><path class="cls-1" d="M36.86,94.5a4.93,4.93,0,0,0-.67,0H36a16.83,16.83,0,0,1-14.33-8.11c-.14-.2-.25-.42-.37-.63s-.3-.54-.47-.8a2.27,2.27,0,0,0-4,2.13,5.68,5.68,0,0,0,.39.78c4,6.92,10.16,10.7,18.33,11.24h.14l.42,0A8.39,8.39,0,0,0,37,99a2.25,2.25,0,0,0-.14-4.46Z"/><path class="cls-1" d="M66.24,27.75a3.52,3.52,0,0,0,.79.38l.15.06a16.74,16.74,0,0,1,10,10.14,19,19,0,0,1,.73,2.86c.08.37.15.73.23,1.09a2.37,2.37,0,0,0,2.26,2h.26a2.34,2.34,0,0,0,2-2.37v-.15c0-.08,0-.19,0-.29A21.54,21.54,0,0,0,70.4,24.63,13.87,13.87,0,0,0,68,23.71,2.08,2.08,0,0,0,65.41,25,2.16,2.16,0,0,0,66.24,27.75Z"/><path class="cls-1" d="M65.4,34.83a12,12,0,0,1,6.33,8.73A2.3,2.3,0,0,0,74,45.62h.16a2.33,2.33,0,0,0,2.14-2.41l0-.21c0-.14,0-.32-.06-.49a16.47,16.47,0,0,0-8.63-11.69,2.81,2.81,0,0,0-1.87-.35,2.12,2.12,0,0,0-1.49,1.14A2.15,2.15,0,0,0,64,33.28,2.74,2.74,0,0,0,65.4,34.83Z"/><path class="cls-1" d="M35.33,92.44h.24a2.28,2.28,0,1,0,.56-4.52l-.56-.09A14.35,14.35,0,0,1,34,87.5a11.85,11.85,0,0,1-7-5.56,2.28,2.28,0,0,0-3.16-1,2.22,2.22,0,0,0-.87,3.09A16.21,16.21,0,0,0,35.33,92.44Z"/></svg>