<?xml version="1.0" encoding="utf-8"?>
<!-- Generator: Adobe Illustrator 25.0.0, SVG Export Plug-In . SVG Version: 6.00 Build 0)  -->
<svg version="1.1" id="Livello_1" xmlns="http://www.w3.org/2000/svg" xmlns:xlink="http://www.w3.org/1999/xlink" x="0px" y="0px"
	 viewBox="0 0 1392.8 588.4" style="enable-background:new 0 0 1392.8 588.4;" xml:space="preserve">
<style type="text/css">
	.st0{enable-background:new    ;}
	.st1{fill:#003366;}
	.st2{fill:#04B1EB;}
	.st3{fill:#05B2EB;}
	.st4{fill:#02B1EB;}
</style>
<g class="st0">
	<path class="st1" d="M809.8,335.8c0-3.3,0-5.3,0-7.2c0-16.2-0.1-32.3-0.1-48.5c0-6.2,0.2-6.3,6.6-6.4c8.2-0.1,8.2-0.1,8.2,8.3
		c0.1,46.3,0.1,92.7,0.2,139c0,3.3,0,6.7,0.2,10c0.3,3.2-1,4.7-4.2,4.4c-10.5-0.8-11.2,2.4-10.5-10.8c0.1-2.1,0-4.1-0.6-6.8
		c-16.8,18.2-37.4,23.5-60.5,19c-14.7-2.9-27-10.8-36.1-22.9c-18.8-25.1-14-62,6.5-81.7C741.1,311.3,779.3,305.4,809.8,335.8z
		 M716.2,376.6c-0.8,26.5,21,47.3,46.8,47.4c26.6,0.1,47.7-21.7,47.6-48.6c-0.1-24.7-22.5-46.9-47.9-46.4
		C736.7,329.5,715.6,351.4,716.2,376.6z"/>
	<path class="st1" d="M903.4,437.9c-33.5,1.1-62.6-25.8-62.3-61.9c0.3-36.4,29.6-61.5,63.1-61.5c32.1,0,62.6,26.6,61.9,63.8
		C965.4,411.3,937.3,439.4,903.4,437.9z M951,376.7c0.8-27.9-22.9-48.4-49.1-47.6c-25,0.8-46,18.8-46,47.8
		c0,29.3,22.5,46.5,46.6,47.5C929.1,425.4,952,403.4,951,376.7z"/>
	<path class="st1" d="M1116.4,401.6c5.2,19.1,24.2,25.1,39.3,22.8c6.6-1,13.3-2.6,17.7-8.2c4.5-5.7,7-12.2,4-19.5
		c-3.3-7.9-10.4-10.1-17.9-11.7c-10.7-2.3-21.6-3.6-32-6.9c-11.3-3.5-18.4-11.8-19.8-23.9c-1.5-13,2.6-23.7,13.2-31.9
		c15.1-11.6,51.1-10.6,63.5,6.9c1,1.4,2,2.7,2.8,4.1c5.1,8.9,4.3,10.6-5.6,14c-2.6,0.9-3.9,0.4-5-2.1c-5.6-12.3-17.8-18.8-31.6-16.8
		c-7.5,1.1-14.7,2.7-19.5,9.6c-8,11.5-2.8,25.1,10.8,28c9.7,2.1,19.4,4.2,29.2,5.9c14.5,2.6,25.3,12.2,26.9,24.4
		c2.2,17.1-4.8,31.4-19.6,37c-19.9,7.6-39.6,7-57-6.5c-5-3.9-7.8-10.8-11.4-16.5c-1.5-2.4-0.3-4.5,2.4-5.5
		C1110,403.8,1113.2,402.7,1116.4,401.6z"/>
	<path class="st1" d="M1091.5,344.1c-0.5,0.3-1,0.8-1.5,1.1c-3.4,1.8-6.9,5.1-10.1,4.9c-2.7-0.2-5.1-4.5-7.6-7
		c-23.7-23.8-64-15.4-76.6,15.9c-6.5,16.2-5.1,32.8,6.7,47.1c12.8,15.3,29.4,20.9,48.6,16.7c10.7-2.3,19.4-9,25.8-18.2
		c1.5-2.2,2.7-2.9,5.2-1.5c3.3,1.9,6.8,3.3,10.2,5c-11.9,21.2-35.5,33.8-63.5,29.4c-31.4-5-52.3-31.5-51.5-62.7
		c0.8-29,21.4-53.6,49.3-59C1056.3,310,1081.1,324.5,1091.5,344.1z"/>
	<path class="st1" d="M886.1,228c0.5,1.7-0.9,3.4-2.7,3.2c-29.4-3.5-58.5-4.3-87.7-0.7c-30.3,3.7-59.4,10.8-86.1,26.2
		c-0.2-0.5-0.5-1-0.7-1.4c7.3-5,14.2-10.7,21.8-15c15.9-8.9,31.5-18.6,48.4-25.1c19.5-7.6,40.1-12.6,60.4-17.9
		c10.1-2.6,20.6-3.4,31-4.8c1.3-0.2,3.6,0.7,4,1.6C878,203.3,883.9,220.4,886.1,228z"/>
	<path class="st1" d="M701.3,254.9c6.8-8.9,13.1-18.3,20.6-26.5c10.8-11.7,22.2-22.9,34-33.5c20.1-17.8,43.2-31.3,67.1-43.3
		c2.1-1.1,5-0.4,6.5,1.5c6.2,7.9,16.9,23,21.3,29.6c1,1.5,0.1,3.5-1.7,3.8c-26.6,4.1-52.3,11.7-77,22.4
		c-26.1,11.3-49.4,26.9-69.4,47.3L701.3,254.9z"/>
	<path class="st1" d="M712.1,259c10.7-3.6,21.2-8.2,32.2-10.6c18.1-4,36.4-7.9,54.8-9.4c21.8-1.7,43.9-1.1,65.8-0.7
		c9.9,0.2,19.8,2.2,29.7,3.5c1.2,0.2,2.7,0.4,3.3,2.5c1.9,6.8,4.7,12.4,4.4,20c0,1.1-1.1,1.8-2.1,1.5
		c-62.4-15.9-124.8-20.1-187.7-4.9L712.1,259z"/>
</g>
<g>
	<path class="st2" d="M215.7,331.6c11.8-13.2,25.7-18.4,42.2-16.8c16.8,1.6,28.6,10.7,37.1,25.1c5.8-9.2,12.3-17.2,22.2-21.3
		c33.4-13.6,68.8,5.6,69.4,43.5c0.3,22.8,0,45.6,0.2,68.4c0,3.4-0.9,4.5-4.4,4.7c-11,0.5-10.9,0.7-10.9-10.2
		c0-20.3,0.2-40.6-0.1-60.9c-0.3-21-15.4-35.6-36-35.1c-13.8,0.3-25.6,9.6-30.8,24.4c-2,5.7-3.2,11.5-3.2,17.6
		c0.1,19.6-0.1,39.3,0.1,58.9c0,3.9-1,5.2-5,5.2c-10.2-0.1-10.2,0.1-10.2-10.2c0-19,0.2-38,0-57c-0.1-10.9-2.9-21.2-10.9-29.2
		c-18.7-18.7-49.9-9.9-57.7,16.2c-1.4,4.6-2.2,9.3-2.2,14.2c0.1,20.1-0.2,40.3,0,60.4c0,4.5-1.5,5.8-5.7,5.7
		c-11.3-0.3-9.4,1.3-9.5-9.5c-0.1-35.1-0.2-70.3-0.3-105.4c0-2.8,0.4-4.2,3.7-4.3c11.3-0.4,11.3-0.5,11.6,10.9
		C215.5,328.1,215.6,329.1,215.7,331.6z"/>
	<path class="st3" d="M576.1,344.1c15.9-24.2,38.4-33.8,66.6-28.2c24.8,4.9,44.9,27.8,46.1,51.3c0.7,13.7,1,13.6-12.8,13.6
		c-29.1,0-58.3,0.2-87.4-0.1c-5.1,0-5.4,1.9-4.8,5.8c3.8,21.8,25.2,38.2,47.3,36.7c15.9-1,28.2-8.2,37.1-21.2
		c1.7-2.5,3.1-3.1,5.6-1.6c1.4,0.9,3,1.5,4.5,2.2c6.5,2.8,6.4,3.1,2.2,9.1c-22.3,31.2-62.3,32.6-86.9,15.8c-19-13-26.6-32-25.5-54.8
		C568,356.8,575.7,345.1,576.1,344.1z M628.5,367.1c0,0.1,0,0.1,0,0.2c13.3,0,26.6-0.2,39.9,0.1c4.7,0.1,5.2-1.4,4-5.4
		c-5.4-19.2-24.1-32.9-44.6-32.7c-19.3,0.2-37.7,14.7-42.7,33.2c-1,3.5-0.3,4.8,3.5,4.7C601.9,367,615.2,367.1,628.5,367.1z"/>
	<path class="st3" d="M461.1,332.5c5.7-4.2,9.8-8.6,14.9-11.6c19.1-11.4,58-10.7,72.1,22c2.9,6.8,4.2,14.1,4.2,21.4
		c0.1,22-0.1,43.9,0.1,65.9c0,4.3-1.4,5.4-5.5,5.2c-9.7-0.3-9.7-0.1-9.7-9.9c0-19.1,0-38.3,0-57.4c0-21.8-12.4-37-32.1-39
		c-19.6-2-38.3,11.8-42.7,31.4c-1.2,5.4-1.2,10.9-1.2,16.4c0,17.6,0,35.3,0.2,52.9c0.1,4.1-1.1,5.4-5.3,5.3c-9.8-0.2-9.7,0-9.8-9.8
		c0-34.5,0-68.9-0.2-103.4c0-4.5,1.1-6.1,5.8-5.9c8.9,0.4,8.9,0.1,9.1,8.8C461.2,327,461.1,329.2,461.1,332.5z"/>
	<path class="st4" d="M940.5,376.6c0,21.5-15.8,36.8-37.8,36.9c-19.5,0.1-37-16.4-36.4-38c0.6-19.9,16.8-36.5,36.7-36.4
		C924.3,339.2,940.4,355.3,940.5,376.6z"/>
	<path class="st2" d="M508.1,232c-3.2,0.5-4.3-0.6-3.5-3.7c3.1-11.2,7.2-22.1,12.3-32.6c1.8-3.7,4.4-4.3,8.1-3.7
		c4.2,0.8,8.5,1.2,12.8,1.8c4.9,1,9.7,2.2,14.6,3.1c42.9,8,82.5,23.9,118.3,48.9c5.1,3.5,10.3,6.9,14.9,11.9
		c-1.1,0.1-1.7,0.3-2.1,0.1c-0.9-0.3-1.8-0.7-2.6-1.3C617.5,220.8,512.9,231.2,508.1,232z"/>
	<path class="st2" d="M541.6,186.7c-1.7-0.7-2.8-1.4-1.4-3.6c7.1-11.3,15-21.9,23.9-31.8c2.5-2.8,4.8-0.4,6.6,0.5
		c9.4,5,18.8,9.9,27.8,15.5c29.6,18.1,55.5,40.5,77.5,67.4c3,3.7,14.2,17.5,14.1,22c-2.2-0.2-2.4-1.7-3.1-2.7
		c-0.8-1.1-1.8-2-2.7-2.9c-19.9-19.1-42.5-33.9-68.1-44.3C592.3,197.1,567.5,189.9,541.6,186.7z"/>
	<path class="st3" d="M684.3,261.8c-3.4,0.6-6.5-1.1-9.6-1.8c-33.6-8.1-67.8-9.8-102.1-7.6c-26.8,1.7-53.1,6.4-78.9,13.6
		c-3.1,0.9-4.5,0.5-3.8-3c1.3-6,2.6-12,3.8-18c0.9-4.1,4.5-3.4,7.2-3.9c14.1-2.3,28.4-3.4,42.6-4.3c0.7,0,1.4-0.1,2-0.1
		c16.7,0,33.3,0.1,50,1.3c0.6,0.1,1.3,0.1,1.9,0.2c3,0.4,6,0.8,9,1.1c13.8,2.4,27.7,4.6,41.2,8.6
		C660.2,251.7,672.9,254.9,684.3,261.8z"/>
	<path class="st4" d="M423.6,376.4c0,18.1-0.1,36.2,0.1,54.4c0,3.6-1,4.5-4.4,4.4c-10.5-0.2-10.6,0-10.6-10.5
		c0-34.6,0-69.2-0.2-103.7c0-4.3,1.5-4.9,5.2-4.9c9.9,0.2,9.9,0,9.9,9.9C423.6,342.8,423.6,359.6,423.6,376.4z"/>
	<path class="st3" d="M429.8,286.3c-0.1,7.6-6.1,13.6-13.6,13.6s-13.7-6.2-13.7-13.5c0-7.7,6.4-14.4,13.6-14.3
		C423.4,272.1,429.9,278.8,429.8,286.3z"/>
</g>
</svg>
