<svg id="Livello_1" data-name="Livello 1" xmlns="http://www.w3.org/2000/svg" viewBox="0 0 412.6 116.43"><defs><style>.cls-1{isolation:isolate;}.cls-2{fill:#036;}.cls-3{fill:#04b1eb;}.cls-4{fill:#05b2eb;}</style></defs><g class="cls-1"><path class="cls-2" d="M396.38,78a2.52,2.52,0,0,1-2.7,3.2c-29.4-3.5-58.5-4.3-87.7-.7-30.3,3.7-59.4,10.8-86.1,26.2-.2-.5-.5-1-.7-1.4,7.3-5,14.2-10.7,21.8-15,15.9-8.9,31.5-18.6,48.4-25.1,19.5-7.6,40.1-12.6,60.4-17.9,10.1-2.6,20.6-3.4,31-4.8,1.3-.2,3.6.7,4,1.6C388.28,53.32,394.18,70.42,396.38,78Z"/><path class="cls-2" d="M211.58,104.92c6.8-8.9,13.1-18.3,20.6-26.5,10.8-11.7,22.2-22.9,34-33.5,20.1-17.8,43.2-31.3,67.1-43.3a5.42,5.42,0,0,1,6.5,1.5c6.2,7.9,16.9,23,21.3,29.6a2.47,2.47,0,0,1-1.7,3.8,313.4,313.4,0,0,0-77,22.4,216.68,216.68,0,0,0-69.4,47.3Z"/><path class="cls-2" d="M222.38,109c10.7-3.6,21.2-8.2,32.2-10.6,18.1-4,36.4-7.9,54.8-9.4,21.8-1.7,43.9-1.1,65.8-.7,9.9.2,19.8,2.2,29.7,3.5,1.2.2,2.7.4,3.3,2.5,1.9,6.8,4.7,12.4,4.4,20a1.61,1.61,0,0,1-2.1,1.5c-62.4-15.9-124.8-20.1-187.7-4.9Z"/></g><path class="cls-3" d="M18.38,82c-3.2.5-4.3-.6-3.5-3.7a191.43,191.43,0,0,1,12.3-32.6c1.8-3.7,4.4-4.3,8.1-3.7,4.2.8,8.5,1.2,12.8,1.8,4.9,1,9.7,2.2,14.6,3.1,42.9,8,82.5,23.9,118.3,48.9,5.1,3.5,10.3,6.9,14.9,11.9-1.1.1-1.7.3-2.1.1a9.06,9.06,0,0,1-2.6-1.3C127.78,70.82,23.18,81.22,18.38,82Z"/><path class="cls-3" d="M51.88,36.72c-1.7-.7-2.8-1.4-1.4-3.6a231.78,231.78,0,0,1,23.9-31.8c2.5-2.8,4.8-.4,6.6.5,9.4,5,18.8,9.9,27.8,15.5a304.6,304.6,0,0,1,77.5,67.4c3,3.7,14.2,17.5,14.1,22-2.2-.2-2.4-1.7-3.1-2.7a25,25,0,0,0-2.7-2.9,213.47,213.47,0,0,0-68.1-44.3C102.58,47.12,77.78,39.92,51.88,36.72Z"/><path class="cls-4" d="M194.58,111.82c-3.4.6-6.5-1.1-9.6-1.8-33.6-8.1-67.8-9.8-102.1-7.6A383.29,383.29,0,0,0,4,116c-3.1.9-4.5.5-3.8-3,1.3-6,2.6-12,3.8-18,.9-4.1,4.5-3.4,7.2-3.9,14.1-2.3,28.4-3.4,42.6-4.3.7,0,1.4-.1,2-.1,16.7,0,33.3.1,50,1.3.6.1,1.3.1,1.9.2,3,.4,6,.8,9,1.1,13.8,2.4,27.7,4.6,41.2,8.6C170.48,101.72,183.18,104.92,194.58,111.82Z"/></svg>