<svg id="Livello_1" data-name="Livello 1" xmlns="http://www.w3.org/2000/svg" viewBox="0 0 114.83 127.54"><defs><style>.cls-1{fill:#2d3b5d;}</style></defs><path class="cls-1" d="M35.3,47.74c0-4.33,0-8.66,0-13a5,5,0,0,1,6.45-5.07c5,1.16,9.93,2.36,14.9,3.5a3.78,3.78,0,0,0,1.64,0c5-1.15,9.88-2.34,14.82-3.49a5,5,0,0,1,6.42,5q0,13,0,26.06a5,5,0,0,1-4,5.12C69.65,67.3,63.8,68.67,58,70a2.61,2.61,0,0,1-1.18,0C51,68.69,45.27,67.32,39.53,66a5.07,5.07,0,0,1-4.23-5.39Zm5.07-13.31a1.25,1.25,0,0,0-.09.27q0,12.92,0,25.82c0,.46.23.57.61.66l13.41,3.16a2.83,2.83,0,0,0,.58,0,2,2,0,0,0,.06-.23q0-12.87,0-25.73c0-.45-.19-.59-.6-.68-2.72-.63-5.43-1.28-8.15-1.93Zm34.2,0a6.76,6.76,0,0,0-.71.11c-4.39,1-8.77,2.09-13.17,3.1-.65.15-.84.4-.84,1.07,0,8.28,0,16.56,0,24.84v.83c.28,0,.47,0,.65-.07,4.41-1,8.82-2.11,13.25-3.11.68-.16.82-.45.81-1.08q0-12.44,0-24.85Z"/><path class="cls-1" d="M25.41,45.74V82.49h64V45.65c-1.42,0-2.84,0-4.26,0a4,4,0,0,1-1.34-.21,2.46,2.46,0,0,1,.75-4.73c1.78-.05,3.56-.1,5.32,0a5,5,0,0,1,4.54,5.16c0,5.62,0,11.24,0,16.86q0,9.79,0,19.6a5,5,0,0,1-4,5.06,6.77,6.77,0,0,1-1.28.09q-31.71,0-63.41,0a5,5,0,0,1-5.28-5.25q0-18.15,0-36.3a5,5,0,0,1,5.28-5.26H29.9a2.49,2.49,0,1,1,0,5c-1.42,0-2.85,0-4.27,0A1,1,0,0,0,25.41,45.74Z"/><path class="cls-1" d="M57.48,93.09H83.69c1.8,0,2.91,1.07,2.8,2.66A2.44,2.44,0,0,1,84.57,98a4.31,4.31,0,0,1-.8.06Q57.4,98,31,98a2.47,2.47,0,0,1-.48-4.92c.32,0,.65,0,1,0Z"/></svg>