<svg id="Livello_1" data-name="Livello 1" xmlns="http://www.w3.org/2000/svg" viewBox="0 0 114.83 127.54"><defs><style>.cls-1{fill:#2d3b5d;}</style></defs><path class="cls-1" d="M79.09,94.79c1.13,0,2.17,0,3.22,0s1.49.38,1.49,1.5c0,1.44,0,2.89,0,4.33,0,1-.37,1.34-1.36,1.37-.19,0-.39,0-.58,0h-49c-1.78,0-2-.19-2-2,0-1.27,0-2.55,0-3.82,0-1,.42-1.37,1.37-1.38s2.15,0,3.31,0c0-1.55,0-3,0-4.47a29.05,29.05,0,0,1,.94-7.48A18.47,18.47,0,0,1,41.81,74q3.82-3.53,7.68-7c2-1.76,2-4,0-5.82-2.59-2.35-5.18-4.69-7.74-7.07A18.52,18.52,0,0,1,35.9,42.08c-.28-2.69-.21-5.42-.29-8.13,0-.36,0-.72,0-1.21H34.49c-3.9,0-3.61.37-3.6-3.64,0-.64,0-1.27,0-1.91,0-1.28.36-1.64,1.62-1.64h49.4c1.67,0,1.89.23,1.89,1.93,0,1.28,0,2.56,0,3.83,0,1.08-.36,1.43-1.46,1.44H79.09c0,.43,0,.78,0,1.13-.15,3.15-.1,6.33-.5,9.45a17.93,17.93,0,0,1-6,11.2l-7.51,6.82a3.56,3.56,0,0,0,0,5.58c2.46,2.24,4.9,4.5,7.38,6.72A19.59,19.59,0,0,1,79,87.48c.15,2.1.1,4.21.14,6.32C79.1,94.1,79.09,94.4,79.09,94.79Zm-41.2-.09H76.61c0-2.65.17-5.24,0-7.8a16.8,16.8,0,0,0-5.72-11.63c-2.4-2.13-4.74-4.35-7.12-6.5-3-2.72-3.07-6.45-.07-9.18,2.6-2.38,5.2-4.74,7.78-7.14a16,16,0,0,0,4.4-7.13c1.25-4.06.93-8.23.93-12.38,0,0-.06-.09-.1-.15H38a2.06,2.06,0,0,0-.06.36c0,2.72,0,5.44.18,8.14a16.85,16.85,0,0,0,5.6,11.61c2.45,2.21,4.87,4.46,7.32,6.66,3,2.74,3,6.45,0,9.17-2.47,2.23-4.92,4.49-7.38,6.72a16.71,16.71,0,0,0-5.14,8.83C37.71,87.7,37.91,91.17,37.89,94.7Z"/><path class="cls-1" d="M57.28,92.28h-14c-1.35,0-1.67-.33-1.63-1.67a15.68,15.68,0,0,1,31.22-1c.27,2.08.33,2.68-2.25,2.64C66.2,92.23,61.74,92.28,57.28,92.28Z"/><path class="cls-1" d="M53.06,46.08a21.51,21.51,0,0,1,5.52,1.16,16.16,16.16,0,0,0,6.61,1,14.84,14.84,0,0,0,5-1.79c.67-.33,1.36-.82,2-.08s.16,1.42-.29,2a20.59,20.59,0,0,1-2.08,2.47C67,53.56,64.08,56.28,61.2,59a6.17,6.17,0,0,0-1.94,3.48c-.23,1.24-.8,1.77-1.82,1.77a1.85,1.85,0,0,1-2-1.78,5.86,5.86,0,0,0-1.87-3.42c-3.17-3-6.29-6-9.42-9-1-1-.85-1.75.44-2.33A19.52,19.52,0,0,1,53.06,46.08Z"/><path class="cls-1" d="M57.37,73.66a1.11,1.11,0,1,1,0-2.22,1.11,1.11,0,1,1,0,2.22Z"/><path class="cls-1" d="M57.36,69.16a1.11,1.11,0,1,1,0-2.22,1.11,1.11,0,1,1,0,2.22Z"/></svg>