<svg id="Livello_1" data-name="Livello 1" xmlns="http://www.w3.org/2000/svg" viewBox="0 0 114.83 127.54"><defs><style>.cls-1{fill:#2d3b5d;}</style></defs><path class="cls-1" d="M94,19.15a10.57,10.57,0,0,1,5,2.44,8.91,8.91,0,0,1,3,6.63q.06,14.28,0,28.58a9.19,9.19,0,0,1-6.69,8.7l-.8.23c0,3.06,0,6.11,0,9.15a2.84,2.84,0,0,1-.25,1.26c-.55,1-1.78,1.16-2.82.28C89,74.3,86.46,72.16,84,70q-2.2-1.91-4.44-3.78a1.37,1.37,0,0,0-.74-.37c-1.27,0-2.55,0-3.94,0V87.49c0,5.79-3.94,9.74-9.72,9.74q-14.25,0-28.49,0a2.18,2.18,0,0,0-1.56.58c-3.83,3.3-7.68,6.56-11.52,9.85a1.93,1.93,0,0,1-2.2.58,2,2,0,0,1-1.07-2.09c0-3,0-6,0-9a23.61,23.61,0,0,1-2.36-.92,9.09,9.09,0,0,1-5-6.47c0-.19-.12-.37-.18-.56V58.54a.71.71,0,0,0,.13-.22c1.07-5,4.56-7.79,9.63-7.8H40V49.37c0-6.93,0-13.87,0-20.81a8.94,8.94,0,0,1,4.78-8.22A20.75,20.75,0,0,1,48,19.15H63.69l.27.2a1.74,1.74,0,0,1-1,3.28H49.84c-4,0-6.37,2.34-6.37,6.38v27.1c0,3.86,2.39,6.25,6.24,6.26q14.67,0,29.36,0a3.23,3.23,0,0,1,2.28.84c2.9,2.52,5.83,5,8.74,7.48l.9.73c0-.34.06-.58.06-.83,0-2.09,0-4.18,0-6.27a1.76,1.76,0,0,1,1.87-1.94,5.74,5.74,0,0,0,5.62-5.9q0-13.95,0-27.89a5.73,5.73,0,0,0-5.93-5.94H79a1.74,1.74,0,0,1-1-3.28,2.83,2.83,0,0,0,.28-.2ZM40,54H22.58c-3.92,0-6.3,2.37-6.3,6.28V87.47c0,3.71,2.06,6,5.78,6.28a1.75,1.75,0,0,1,1.71,1.91c0,2.06,0,4.13,0,6.19v1c.4-.33.67-.53.93-.75,2.92-2.49,5.84-5,8.73-7.48a3.4,3.4,0,0,1,2.37-.87c9.78,0,19.57,0,29.36,0,3.79,0,6.18-2.41,6.19-6.22V65.74H46.79c.08.23.17.5.27.77q3,8.05,6.07,16.11c.49,1.3.15,2.28-.92,2.66s-1.84-.17-2.34-1.47c-.34-.89-.69-1.78-1-2.69a.76.76,0,0,0-.85-.63q-4.18,0-8.37,0a.78.78,0,0,0-.86.63c-.38,1.07-.77,2.13-1.21,3.17a1.68,1.68,0,0,1-2.22,1,1.72,1.72,0,0,1-1-2.22c.07-.22.15-.44.24-.65l4.65-12.19,2.91-7.65C40.05,60.2,39.8,57.23,40,54Zm3.82,13.86L40.38,77h6.9Z"/><path class="cls-1" d="M71.53,19.15l.41.29a1.64,1.64,0,0,1,.71,2,1.72,1.72,0,0,1-3.29,0,1.66,1.66,0,0,1,.71-2l.41-.29Z"/><path class="cls-1" d="M77,37.9a19.57,19.57,0,0,1-3.65,11.16A15.3,15.3,0,0,0,80,52.94c.75.22,1.53.32,2.3.49a1.7,1.7,0,0,1,1.46,2,1.67,1.67,0,0,1-2,1.4,18.75,18.75,0,0,1-10.1-4.51l-.69-.6a18.31,18.31,0,0,1-6.22,3.94,29.92,29.92,0,0,1-4.28,1.12,1.69,1.69,0,0,1-2.26-1.41c-.14-1.07.5-1.83,1.79-2a15.53,15.53,0,0,0,8.22-3.87,4.67,4.67,0,0,0,.43-.45A19.44,19.44,0,0,1,65.05,38c-.34,0-.64-.05-1-.05-1.57,0-3.13,0-4.7,0a1.73,1.73,0,1,1,.08-3.46c2.87,0,5.75,0,8.62,0h1.16c0-1.41,0-2.76,0-4.11a3.38,3.38,0,0,1,.2-1.19,1.65,1.65,0,0,1,2-.91,1.69,1.69,0,0,1,1.31,1.72c0,1.45,0,2.9,0,4.45.35,0,.65,0,1,0h8.45a4.48,4.48,0,0,1,1,.08,1.71,1.71,0,0,1,1.22,1.71A1.62,1.62,0,0,1,83,37.82c-1.13.09-2.27.06-3.4.08Zm-6,8.33A15.51,15.51,0,0,0,73.45,38H68.56A15.5,15.5,0,0,0,71,46.23Z"/></svg>