<svg data-bbox="23.5 36 153 128" viewBox="0 0 200 200" height="200" width="200" xmlns="http://www.w3.org/2000/svg" data-type="shape">
    <g>
        <path fill="#FFFFFF" d="M129.19 130.521a4.02 4.02 0 0 1 .013 5.657l-26.359 26.644-.005.004a4.045 4.045 0 0 1-.597.495c-.052.035-.111.058-.165.09a3.986 3.986 0 0 1-.519.28c-.076.032-.159.047-.237.074-.166.058-.331.12-.507.156a3.972 3.972 0 0 1-1.575 0c-.168-.034-.324-.094-.483-.148-.086-.029-.177-.046-.261-.081a4.052 4.052 0 0 1-.503-.271c-.059-.035-.123-.06-.18-.098a3.994 3.994 0 0 1-.597-.495l-.005-.004-26.358-26.644a4.018 4.018 0 0 1 .013-5.657 3.958 3.958 0 0 1 5.621.013l19.566 19.779V100.05c0-2.209 1.78-4 3.975-4s3.975 1.791 3.975 4v50.263l19.567-19.779a3.959 3.959 0 0 1 5.621-.013zm40.609-38.6c-6.907-9.929-18.197-15.853-30.204-15.853h-5.331c-4.209-13.533-13.1-24.859-25.289-32.116-13.014-7.747-28.242-9.927-42.871-6.129-30.274 7.852-48.586 39.131-40.82 69.724 2.222 8.751 6.528 16.955 12.453 23.724a3.958 3.958 0 0 0 5.61.358 4.017 4.017 0 0 0 .356-5.645 49.7 49.7 0 0 1-10.716-20.417c-6.685-26.329 9.062-53.244 35.101-59.998 12.573-3.259 25.656-1.391 36.84 5.269 11.252 6.699 19.237 17.431 22.482 30.22a3.981 3.981 0 0 0 3.851 3.01h8.329c9.418 0 18.275 4.65 23.695 12.441 9.198 13.224 6.042 31.544-7.036 40.84a4.017 4.017 0 0 0-.954 5.575 3.964 3.964 0 0 0 5.54.96c16.645-11.832 20.665-35.141 8.964-51.963z"></path>
    </g>
</svg>